<svg xmlns="http://www.w3.org/2000/svg" width="80" height="80" viewBox="0 0 80 80">
  <g id="Group_69829" data-name="Group 69829" transform="translate(-0.199 -0.198)">
    <circle id="Ellipse_33" data-name="Ellipse 33" cx="40" cy="40" r="40" transform="translate(0.199 0.198)" fill="#0d3c47"/>
    <g id="noun-text-field-1720822" transform="translate(3.355 6.868)">
      <path id="Path_68996" data-name="Path 68996" d="M64.657,25.33H8.426a.582.582,0,0,0-.582.582V41.438a.582.582,0,0,0,.582.582H64.658a.582.582,0,0,0,.582-.582V25.912A.582.582,0,0,0,64.657,25.33ZM16.226,37.992a.582.582,0,1,1,0,1.164h-4.3a.582.582,0,1,1,0-1.164H13.5V29.358H11.93a.582.582,0,1,1,0-1.164h4.3a.582.582,0,1,1,0,1.164H14.66v8.634Z" transform="translate(0)" fill="#fff"/>
    </g>
  </g>
</svg>
