<svg xmlns="http://www.w3.org/2000/svg" width="23.198" height="24.058" viewBox="0 0 23.198 24.058">
  <g id="noun-add-contact-5207179" transform="translate(-4.719 -4)" opacity="0.83">
    <path id="Path_68184" data-name="Path 68184" d="M15.889,30a6.616,6.616,0,0,0,1.51,4.21H5.369a.6.6,0,0,1-.6-.535,7.53,7.53,0,0,1-.048-.92,11.186,11.186,0,0,1,6.831-10.3,6.9,6.9,0,0,0,8.675,0,11.073,11.073,0,0,1,1.8.95A6.616,6.616,0,0,0,15.889,30Z" transform="translate(0 -7.353)" fill="#fff"/>
    <circle id="Ellipse_31" data-name="Ellipse 31" cx="5.714" cy="5.714" r="5.714" transform="translate(10.175 4)" fill="#fff"/>
    <path id="Path_68185" data-name="Path 68185" d="M30.7,26a5.413,5.413,0,1,0,5.413,5.413A5.413,5.413,0,0,0,30.7,26Zm2.406,6.014H31.3v1.8a.6.6,0,0,1-1.2,0v-1.8H28.3a.6.6,0,1,1,0-1.2h1.8v-1.8a.6.6,0,0,1,1.2,0v1.8h1.8a.6.6,0,1,1,0,1.2Z" transform="translate(-8.198 -8.768)" fill="#fff"/>
  </g>
</svg>
