<svg xmlns="http://www.w3.org/2000/svg" width="80" height="80" viewBox="0 0 80 80">
  <g id="Group_69827" data-name="Group 69827" transform="translate(-367 -1856)">
    <g id="Group_69233" data-name="Group 69233" transform="translate(366.801 1855.802)">
      <circle id="Ellipse_33" data-name="Ellipse 33" cx="40" cy="40" r="40" transform="translate(0.199 0.198)" fill="#0d3c47"/>
    </g>
    <g id="noun-add-3480455" transform="translate(387 1877)">
      <circle id="Ellipse_34" data-name="Ellipse 34" cx="5.843" cy="5.843" r="5.843" transform="translate(22.636 0)" fill="#fff"/>
      <circle id="Ellipse_35" data-name="Ellipse 35" cx="5.843" cy="5.843" r="5.843" transform="translate(6.568 2.921)" fill="#fff"/>
      <path id="Path_68990" data-name="Path 68990" d="M54.849,230.289A11.809,11.809,0,0,0,44.464,224a11.559,11.559,0,0,0-8.749,3.981,15.786,15.786,0,0,0-3.662,10.187c1.474.751,6.99,3.361,12.411,3.361a23.053,23.053,0,0,0,4.72-.511A8.768,8.768,0,0,1,54.849,230.289Z" transform="translate(-32.053 -207.932)" fill="#fff"/>
      <path id="Path_68991" data-name="Path 68991" d="M239.3,304a7.3,7.3,0,1,0,7.3,7.3A7.3,7.3,0,0,0,239.3,304Zm3.652,8.034h-2.921v2.921a.73.73,0,0,1-1.461,0v-2.921h-2.921a.73.73,0,1,1,0-1.461h2.921v-2.921a.73.73,0,1,1,1.461,0v2.921h2.921a.73.73,0,1,1,0,1.461Z" transform="translate(-213.746 -280.628)" fill="#fff"/>
      <path id="Path_68992" data-name="Path 68992" d="M258.485,192a11.5,11.5,0,0,0-8.592,3.808,14.225,14.225,0,0,1,4.38,5.052,8.766,8.766,0,0,1,10.021,7.905,29.133,29.133,0,0,0,6.6-2.579,15.792,15.792,0,0,0-3.663-10.2A11.559,11.559,0,0,0,258.485,192Z" transform="translate(-230.005 -178.853)" fill="#fff"/>
    </g>
  </g>
</svg>
