<svg xmlns="http://www.w3.org/2000/svg" width="18.651" height="19.6" viewBox="0 0 18.651 19.6">
  <g id="Group_68910" data-name="Group 68910" transform="translate(-4.7 -2.5)">
    <path id="Path_68134" data-name="Path 68134" d="M21,3.7H19.575V3.243a.743.743,0,1,0-1.485,0v.475h-3.3V3.243a.743.743,0,1,0-1.485,0v.475H9.982V3.243a.743.743,0,0,0-1.485,0v.475H7.073A2.386,2.386,0,0,0,4.7,6.09V19.727A2.386,2.386,0,0,0,7.073,22.1H20.978a2.386,2.386,0,0,0,2.373-2.373V6.069A2.342,2.342,0,0,0,21,3.7ZM7.093,5.182H8.517v.475a.743.743,0,0,0,1.485,0V5.182h3.322v.475a.743.743,0,1,0,1.485,0V5.182h3.322v.475a.743.743,0,1,0,1.485,0V5.182H21.04a.916.916,0,0,1,.908.908v1.4H6.185V6.09A.9.9,0,0,1,7.093,5.182ZM21,20.635H7.093a.916.916,0,0,1-.908-.908V8.958h15.7v10.77A.885.885,0,0,1,21,20.635Z" transform="translate(0 0)"/>
    <path id="Path_68135" data-name="Path 68135" d="M22.793,41H21a.6.6,0,0,0-.6.6v.64a.6.6,0,0,0,.6.6h1.795a.6.6,0,0,0,.6-.6V41.6A.6.6,0,0,0,22.793,41Z" transform="translate(-12.461 -30.557)"/>
    <path id="Path_68136" data-name="Path 68136" d="M67.473,41H65.7a.6.6,0,0,0-.6.6v.64a.6.6,0,0,0,.6.6h1.795a.6.6,0,0,0,.6-.6V41.6A.6.6,0,0,0,67.473,41Z" transform="translate(-47.938 -30.557)"/>
    <path id="Path_68137" data-name="Path 68137" d="M45.093,41H43.3a.6.6,0,0,0-.6.6v.64a.6.6,0,0,0,.6.6h1.795a.6.6,0,0,0,.6-.6V41.6A.6.6,0,0,0,45.093,41Z" transform="translate(-30.16 -30.557)"/>
    <path id="Path_68138" data-name="Path 68138" d="M22.793,57.8H21a.6.6,0,0,0-.6.6v.64a.6.6,0,0,0,.6.6h1.795a.6.6,0,0,0,.6-.6V58.4A.6.6,0,0,0,22.793,57.8Z" transform="translate(-12.461 -43.891)"/>
    <path id="Path_68139" data-name="Path 68139" d="M67.473,57.8H65.7a.6.6,0,0,0-.6.6v.64a.6.6,0,0,0,.6.6h1.795a.6.6,0,0,0,.6-.6V58.4A.6.6,0,0,0,67.473,57.8Z" transform="translate(-47.938 -43.891)"/>
    <path id="Path_68140" data-name="Path 68140" d="M45.093,57.8H43.3a.6.6,0,0,0-.6.6v.64a.6.6,0,0,0,.6.6h1.795a.6.6,0,0,0,.6-.6V58.4A.6.6,0,0,0,45.093,57.8Z" transform="translate(-30.16 -43.891)"/>
    <path id="Path_68141" data-name="Path 68141" d="M22.793,74.7H21a.6.6,0,0,0-.6.6v.64a.6.6,0,0,0,.6.6h1.795a.6.6,0,0,0,.6-.6V75.3A.6.6,0,0,0,22.793,74.7Z" transform="translate(-12.461 -57.304)"/>
    <path id="Path_68142" data-name="Path 68142" d="M67.473,74.7H65.7a.6.6,0,0,0-.6.6v.64a.6.6,0,0,0,.6.6h1.795a.6.6,0,0,0,.6-.6V75.3A.6.6,0,0,0,67.473,74.7Z" transform="translate(-47.938 -57.304)"/>
    <path id="Path_68143" data-name="Path 68143" d="M45.093,74.7H43.3a.6.6,0,0,0-.6.6v.64a.6.6,0,0,0,.6.6h1.795a.6.6,0,0,0,.6-.6V75.3A.6.6,0,0,0,45.093,74.7Z" transform="translate(-30.16 -57.304)"/>
  </g>
</svg>
