<svg id="Group_68864" data-name="Group 68864" xmlns="http://www.w3.org/2000/svg" width="32" height="32" viewBox="0 0 32 32">
  <path id="Path_68126" data-name="Path 68126" d="M138,162a16,16,0,1,0,16,16A16.017,16.017,0,0,0,138,162Zm-4.906,9.478L138,176.384l4.906-4.906a1.143,1.143,0,1,1,1.616,1.616L139.616,178l4.906,4.906a1.143,1.143,0,0,1-1.616,1.616L138,179.616l-4.906,4.906a1.143,1.143,0,1,1-1.616-1.616L136.384,178l-4.906-4.906a1.143,1.143,0,0,1,0-1.616,1.193,1.193,0,0,1,1.616,0Z" transform="translate(-122 -162)" fill="#222"/>
</svg>
