<svg xmlns="http://www.w3.org/2000/svg" width="19.199" height="19.199" viewBox="0 0 19.199 19.199">
  <g id="noun-close-3523569" transform="translate(-26.514 -26.514)">
    <g id="Group_69371" data-name="Group 69371" transform="translate(26.514 26.514)">
      <path id="Path_68174" data-name="Path 68174" d="M45.354,26.873a1.226,1.226,0,0,0-1.734,0L36.114,34.38l-7.506-7.506a1.226,1.226,0,0,0-1.734,1.734l7.506,7.506L26.873,43.62a1.226,1.226,0,1,0,1.734,1.734l7.506-7.506,7.506,7.506a1.226,1.226,0,1,0,1.734-1.734l-7.506-7.506,7.506-7.506A1.226,1.226,0,0,0,45.354,26.873Z" transform="translate(-26.514 -26.514)"/>
    </g>
  </g>
</svg>
