<svg xmlns="http://www.w3.org/2000/svg" xmlns:xlink="http://www.w3.org/1999/xlink" width="68" height="68" viewBox="0 0 68 68">
  <defs>
    <filter id="Ellipse_5" x="0" y="0" width="68" height="68" filterUnits="userSpaceOnUse">
      <feOffset input="SourceAlpha"/>
      <feGaussianBlur stdDeviation="4" result="blur"/>
      <feFlood flood-opacity="0.631"/>
      <feComposite operator="in" in2="blur"/>
      <feComposite in="SourceGraphic"/>
    </filter>
  </defs>
  <g id="Group_69003" data-name="Group 69003" transform="translate(11.8 12)">
    <g transform="matrix(1, 0, 0, 1, -11.8, -12)" filter="url(#Ellipse_5)">
      <circle id="Ellipse_5-2" data-name="Ellipse 5" cx="22" cy="22" r="22" transform="translate(12 12)" fill="#191919"/>
    </g>
    <path id="Path_68127" data-name="Path 68127" d="M6.342,6.18a.8.8,0,0,1-.52-.2L.3,1.433A.79.79,0,0,1,.2.3.79.79,0,0,1,1.335.2L6.342,4.327,11.382.2A.817.817,0,0,1,12.52.3a.817.817,0,0,1-.1,1.138L6.9,5.985A1.036,1.036,0,0,1,6.342,6.18Z" transform="translate(25.18 16) rotate(90)" fill="#fff"/>
  </g>
</svg>
