<svg xmlns="http://www.w3.org/2000/svg" fill="white" width="16.133" height="16.133" viewBox="0 0 16.133 16.133">
  <g id="Group_69051" data-name="Group 69051" transform="translate(-30.2 -29.6)">
    <path id="Path_68153" data-name="Path 68153" d="M43.132,41.861h0a.844.844,0,0,0,.242.161h0c.04,0,.081.04.121.04h.4a.148.148,0,0,0,.121-.04c.04,0,.04-.04.081-.04s.04-.04.081-.04l.121-.121,3.63-3.63A.8.8,0,0,0,46.8,37.062L44.543,39.32V30.407a.807.807,0,0,0-1.613,0V39.36L40.671,37.1a.8.8,0,0,0-1.129,1.129Z" transform="translate(-5.43 0)" fill="#222"/>
    <path id="Path_68154" data-name="Path 68154" d="M45.526,58.6a.809.809,0,0,0-.807.807v2.017H31.813V59.407a.807.807,0,0,0-1.613,0V62.23a.809.809,0,0,0,.807.807h14.52a.809.809,0,0,0,.807-.807V59.407A.809.809,0,0,0,45.526,58.6Z" transform="translate(0 -17.304)" fill="#222"/>
  </g>
</svg>
