<svg id="noun-visibility-off-3643970" xmlns="http://www.w3.org/2000/svg" width="23.59" height="17.667" viewBox="0 0 23.59 17.667">
  <path id="Path_67783" data-name="Path 67783" d="M33.874,23.862A5.071,5.071,0,0,1,38.6,30.781l3.441,2.526a14.058,14.058,0,0,0,3.2-3.2,1.992,1.992,0,0,0,0-2.332A14,14,0,0,0,28.21,23.138l2.5,1.835a5.05,5.05,0,0,1,3.163-1.111Z" transform="translate(-22.127 -20.464)" fill="#222"/>
  <path id="Path_67784" data-name="Path 67784" d="M42.71,35.676,48,39.56a3.588,3.588,0,0,0,.113-.881,3.535,3.535,0,0,0-5.4-3Z" transform="translate(-32.827 -30.205)" fill="#222"/>
  <path id="Path_67785" data-name="Path 67785" d="M28.588,33.12a.786.786,0,0,0-.314-.563L24.245,29.59l-3.1-2.28-1.247-.917L14.26,22.252l-1.245-.915L10.3,19.353l-3.955-2.9a.786.786,0,0,0-.912,0,.765.765,0,0,0-.17.168.786.786,0,0,0,.165,1.1l3.425,2.513a14.152,14.152,0,0,0-3.475,3.389,1.992,1.992,0,0,0,0,2.333,13.984,13.984,0,0,0,17.36,4.487l4.6,3.386a.784.784,0,0,0,1.245-.7ZM16.747,29.852a5.074,5.074,0,0,1-4.6-7.2l1.276.938A3.535,3.535,0,0,0,18.891,27.6l1.266.938a5.055,5.055,0,0,1-3.41,1.31Z" transform="translate(-5.001 -16.304)" fill="#222"/>
</svg>
