<svg xmlns="http://www.w3.org/2000/svg" width="24.326" height="24.353" viewBox="0 0 24.326 24.353">
  <g id="noun-file-4254147" transform="translate(-4.407 -1.5)">
    <g id="Layer_2" data-name="Layer 2" transform="translate(4.407 1.5)">
      <path id="Path_68144" data-name="Path 68144" d="M25.68,6.308,21.042,1.669a.58.58,0,0,0-.411-.169H9.471A2.179,2.179,0,0,0,7.295,3.677v7.13a6.378,6.378,0,0,0,0,12.7v.172a2.179,2.179,0,0,0,2.177,2.177h14.2a2.179,2.179,0,0,0,2.177-2.177V6.719a.58.58,0,0,0-.169-.411ZM21.211,3.48,23.87,6.139H21.211ZM2.656,17.156a5.219,5.219,0,1,1,5.219,5.219,5.219,5.219,0,0,1-5.219-5.219Zm21.017,7.538H9.471a1.019,1.019,0,0,1-1.017-1.017v-.172a6.378,6.378,0,0,0,0-12.7V3.677A1.019,1.019,0,0,1,9.471,2.66h10.58V6.719a.58.58,0,0,0,.58.58H24.69V23.677A1.019,1.019,0,0,1,23.673,24.694Z" transform="translate(-1.524 -1.5)" fill="#fff"/>
      <path id="Path_68145" data-name="Path 68145" d="M18.878,8.5h-5.8a.58.58,0,1,0,0,1.16h5.8a.58.58,0,0,0,0-1.16Z" transform="translate(0.229 -0.382)" fill="#fff"/>
      <path id="Path_68146" data-name="Path 68146" d="M18.559,11.5H15.08a.58.58,0,1,0,0,1.16h3.479a.58.58,0,1,0,0-1.16Z" transform="translate(0.548 0.097)" fill="#fff"/>
      <path id="Path_68147" data-name="Path 68147" d="M7.178,18.914a.58.58,0,0,0,.443,0,.6.6,0,0,0,.189-.126l2.319-2.319a.581.581,0,0,0-.821-.821L7.979,16.979v-4.4a.58.58,0,1,0-1.16,0v4.4L5.49,15.648a.581.581,0,1,0-.821.821l2.319,2.319a.6.6,0,0,0,.189.125Z" transform="translate(-1.049 0.177)" fill="#fff"/>
    </g>
  </g>
</svg>
