<svg xmlns="http://www.w3.org/2000/svg" width="80" height="80" viewBox="0 0 80 80">
  <g id="Group_69823" data-name="Group 69823" transform="translate(-0.199 -0.198)">
    <circle id="Ellipse_33" data-name="Ellipse 33" cx="40" cy="40" r="40" transform="translate(0.199 0.198)" fill="#0d3c47"/>
    <g id="Group_69822" data-name="Group 69822" transform="translate(-6 -0.199)">
      <g id="noun-add-file-2572746" transform="translate(27.213 21.397)">
        <g id="Group_69794" data-name="Group 69794" transform="translate(0.985 1)">
          <path id="Path_68993" data-name="Path 68993" d="M22.142,6.387H24.52a.167.167,0,0,0,.118-.285L22.26,3.723a.167.167,0,0,0-.285.118V6.22A.167.167,0,0,0,22.142,6.387Z" transform="translate(1.377 -0.699)" fill="#fff"/>
          <path id="Path_68994" data-name="Path 68994" d="M25.528,36.028a10.009,10.009,0,0,1,3.179-19.462,8.733,8.733,0,0,1,.9.033.275.275,0,0,0,.3-.273V9.355a.558.558,0,0,0-.556-.556h-6.13a1.116,1.116,0,0,1-1.113-1.113V1.556A.556.556,0,0,0,21.557,1H3.211A2.232,2.232,0,0,0,.985,3.225V34.377A2.224,2.224,0,0,0,3.211,36.6l22.219-.04A.276.276,0,0,0,25.528,36.028Z" transform="translate(-0.985 -1)" fill="#fff"/>
          <path id="Path_68995" data-name="Path 68995" d="M26.8,16.988a7.788,7.788,0,1,0,7.788,7.788A7.794,7.794,0,0,0,26.8,16.988Z" transform="translate(1.044 0.8)" fill="#fff"/>
        </g>
      </g>
      <g id="noun-history-3324996" transform="translate(185.875 48.698)">
        <g id="Group_69821" data-name="Group 69821" transform="translate(-135 -6)">
          <path id="Path_68998" data-name="Path 68998" d="M16.648,11.324A5.324,5.324,0,1,1,7.13,8.048H6.686a.41.41,0,0,1,0-.819l1.4-.018h.121l.029.01h0l.037.014.027.018a.25.25,0,0,1,.039.025.191.191,0,0,1,.029.029h0l.023.023h0l.02.029h0a.17.17,0,0,1,.016.025.285.285,0,0,1,.012.027l.01.02a.028.028,0,0,0,.01.027v.055a.1.1,0,0,1,0,.025h0l.135,1.4a.41.41,0,0,1-.367.448H8.191a.41.41,0,0,1-.41-.369l-.049-.5a4.505,4.505,0,1,0,3.592-1.694.41.41,0,1,1,0-.819,5.324,5.324,0,0,1,5.324,5.324Zm-5.734.066v.039l.012.037a.291.291,0,0,0,.016.037.1.1,0,0,0,.018.033c0,.012.014.023.02.033a.131.131,0,0,0,.027.031l.029.029.029.025.037.025.018.012L13.2,12.758a.42.42,0,0,0,.188.047.41.41,0,0,0,.188-.774l-1.843-.954V8.326a.41.41,0,0,0-.819,0v3.02A.3.3,0,0,0,10.915,11.39Z" transform="translate(-6 -6)" fill="#0e3d47"/>
        </g>
      </g>
    </g>
  </g>
</svg>
