<svg xmlns="http://www.w3.org/2000/svg" xmlns:xlink="http://www.w3.org/1999/xlink" width="141.479" height="83.2" viewBox="0 0 141.479 83.2">
  <defs>
    <linearGradient id="linear-gradient" y1="0.5" x2="1" y2="0.5" gradientUnits="objectBoundingBox">
      <stop offset="0" stop-color="#316b40"/>
      <stop offset="1" stop-color="#131e59"/>
    </linearGradient>
    <linearGradient id="linear-gradient-2" x1="0" y1="0.5" x2="1" y2="0.5" xlink:href="#linear-gradient"/>
    <linearGradient id="linear-gradient-3" x1="0.123" y1="0.808" x2="0.845" y2="0.134" gradientUnits="objectBoundingBox">
      <stop offset="0" stop-color="#46a527"/>
      <stop offset="0.5" stop-color="#1e5429"/>
      <stop offset="0.73" stop-color="#204539"/>
      <stop offset="1" stop-color="#223948"/>
    </linearGradient>
  </defs>
  <g id="IsDBI_Logo_Full_RGB" transform="translate(0.002)">
    <g id="Group_69654" data-name="Group 69654" transform="translate(56.057)">
      <path id="Path_68620" data-name="Path 68620" d="M542.831,1.608l0,13.731a1.914,1.914,0,0,0,.054.462h-5.081V10.733a6.449,6.449,0,0,0-6.772-6.555h0a7.023,7.023,0,0,0-4.821,1.787,6.323,6.323,0,0,0-1.986,4.771v2.414c.022,1.138.007,1.856-.375,2.247a2.1,2.1,0,0,1-1.525.408h-9.07c-.886,0-3.773-.365-3.774-5.066a5.452,5.452,0,0,1,1.412-4.173,3.494,3.494,0,0,1,2.359-.9h0c3.275,0,3.719,3.632,3.774,4.359l.017.228,2.76-1.462-.038-.119a6.615,6.615,0,0,0-6.512-4.494h0a6.965,6.965,0,0,0-4.79,1.787,6.419,6.419,0,0,0-1.981,4.771,6.352,6.352,0,0,0,2.331,5.069H502.5V10.093A6.134,6.134,0,0,0,500.252,5.3a8.41,8.41,0,0,0-5.389-1.8h0a7.773,7.773,0,0,0-6.9,3.569l-.058.1.934.9c-2.937.036-5.143,2.007-5.142,4.614a4.217,4.217,0,0,0,1.338,3.125h-4.781V11.573a5.121,5.121,0,0,0-1.914-4.329,7.9,7.9,0,0,0-4.857-1.326h-5.191V7.405h5.21c1.048,0,3.752.026,3.753,4.167v3.779a1.974,1.974,0,0,0,.054.462l-10.131,0V17.3h9.465l.874-.941a1.958,1.958,0,0,0,1.688.938h2.124l17.519,0,.91-.943a1.98,1.98,0,0,0,1.654.942h2.124l16.807,0h1.979c1.986,0,3.1-.655,3.56-2.114a6.981,6.981,0,0,0,5.148,2.113h3.161l.9-.937a1.919,1.919,0,0,0,1.659.936h5.462l.91-.943a1.98,1.98,0,0,0,1.654.942h1.086l0-17.278-3.035,1.6Zm-14.142,13.3a5.427,5.427,0,0,1-1.428-4.172,5.427,5.427,0,0,1,1.425-4.172,3.537,3.537,0,0,1,2.346-.9h0c.885,0,3.773.366,3.774,5.069V15.34a1.971,1.971,0,0,0,.054.462h-3.827a3.536,3.536,0,0,1-2.346-.9Zm-37.284.9h-2.478a2.407,2.407,0,0,1-1.542-.509,3.237,3.237,0,0,1-.936-2.616c0-2.719,1.552-3.126,2.477-3.126h0a2.407,2.407,0,0,1,1.542.51,3.237,3.237,0,0,1,.936,2.616v3.126Zm-.965-7.556a4.359,4.359,0,0,1,4.424-3.266h0c1.08,0,4.6.368,4.6,5.1v5.255a1.974,1.974,0,0,0,.054.462H494.15V12.685a4.557,4.557,0,0,0-3.713-4.43Z" transform="translate(-467.18 -0.009)" fill="#007354"/>
      <path id="Path_68621" data-name="Path 68621" d="M1156.755,0l-3.035,1.6,0,15.681h3.035Z" transform="translate(-1071.34)" fill="#007354"/>
    </g>
    <g id="Group_69655" data-name="Group 69655" transform="translate(-0.001 74.296)">
      <path id="Path_68622" data-name="Path 68622" d="M0,627.792V621.23H.838v6.562Z" transform="translate(0 -620.983)"/>
      <path id="Path_68623" data-name="Path 68623" d="M18.64,640.463q-.229,0-.547-.029t-.623-.072c-.2-.029-.384-.055-.542-.08l.048-.685c.158.019.337.041.538.067s.395.046.584.062.346.024.466.024a2.425,2.425,0,0,0,.618-.066.69.69,0,0,0,.376-.228.737.737,0,0,0,.128-.466.548.548,0,0,0-.1-.352.753.753,0,0,0-.361-.209,4.465,4.465,0,0,0-.766-.152,4.769,4.769,0,0,1-.889-.218,1.025,1.025,0,0,1-.523-.39,1.352,1.352,0,0,1-.167-.732,1.228,1.228,0,0,1,.894-1.289,2.729,2.729,0,0,1,.838-.128c.184,0,.384.01.6.029s.425.043.628.072.377.055.523.08l-.019.685c-.152-.025-.331-.049-.538-.072s-.41-.041-.613-.058-.38-.024-.533-.024a1.945,1.945,0,0,0-.494.058.676.676,0,0,0-.347.2.6.6,0,0,0-.128.4.517.517,0,0,0,.095.324.694.694,0,0,0,.352.2,6.252,6.252,0,0,0,.751.167,4.636,4.636,0,0,1,.947.238,1.036,1.036,0,0,1,.518.4,1.381,1.381,0,0,1,.162.727,1.3,1.3,0,0,1-.5,1.175,2.483,2.483,0,0,1-1.374.328Z" transform="translate(-14.855 -633.558)"/>
      <path id="Path_68624" data-name="Path 68624" d="M56.36,625.98v-6.81h.809v6.81Z" transform="translate(-49.597 -619.17)"/>
      <path id="Path_68625" data-name="Path 68625" d="M73.419,640.454a1.334,1.334,0,0,1-1.022-.371,1.885,1.885,0,0,1-.18-1.865,1.055,1.055,0,0,1,.5-.448,2.489,2.489,0,0,1,.823-.19l1.427-.143v-.39a.859.859,0,0,0-.209-.656.872.872,0,0,0-.608-.19c-.166,0-.356.006-.576.019s-.438.029-.656.048-.41.038-.576.058l-.038-.608c.152-.031.337-.064.557-.095s.448-.059.685-.08.455-.034.652-.034a2.171,2.171,0,0,1,.9.162,1.055,1.055,0,0,1,.518.5,1.979,1.979,0,0,1,.167.87v2.378a.361.361,0,0,0,.162.29.89.89,0,0,0,.361.119l-.029.628a3.033,3.033,0,0,1-.39-.024,2.4,2.4,0,0,1-.324-.062,1.149,1.149,0,0,1-.257-.119,1.57,1.57,0,0,1-.218-.167q-.18.076-.457.162a5.474,5.474,0,0,1-.589.148,3.275,3.275,0,0,1-.628.062Zm.143-.666a3.212,3.212,0,0,0,.514-.043,4.585,4.585,0,0,0,.5-.109c.158-.044.288-.085.39-.124v-1.484l-1.322.124a.864.864,0,0,0-.589.242.837.837,0,0,0-.181.576.936.936,0,0,0,.176.6.613.613,0,0,0,.509.218Z" transform="translate(-63.404 -633.549)"/>
      <path id="Path_68626" data-name="Path 68626" d="M114.6,640.341v-4.755h.8v.323a3.928,3.928,0,0,1,.618-.276,2.172,2.172,0,0,1,.742-.143,2.1,2.1,0,0,1,.761.114,1.04,1.04,0,0,1,.466.361,4.287,4.287,0,0,1,.466-.214,4.5,4.5,0,0,1,.589-.186,2.623,2.623,0,0,1,.618-.076,1.861,1.861,0,0,1,1,.223,1.2,1.2,0,0,1,.485.742,5.56,5.56,0,0,1,.138,1.374v2.511h-.809v-2.473a5.33,5.33,0,0,0-.071-.966.87.87,0,0,0-.271-.528.955.955,0,0,0-.608-.162,2.409,2.409,0,0,0-.722.109,3.085,3.085,0,0,0-.542.214,3.827,3.827,0,0,1,.08.6q.023.356.024.737v2.464h-.8V637.9a6.044,6.044,0,0,0-.066-1,.838.838,0,0,0-.271-.533,1,1,0,0,0-.623-.162,2.191,2.191,0,0,0-.68.109,3.177,3.177,0,0,0-.528.214v3.805h-.8Z" transform="translate(-100.849 -633.532)"/>
      <path id="Path_68627" data-name="Path 68627" d="M180.96,621.394v-.884h.8v.884Zm0,5.763V622.4h.8v4.755Z" transform="translate(-159.246 -620.349)"/>
      <path id="Path_68628" data-name="Path 68628" d="M199.029,640.436a2.383,2.383,0,0,1-1.194-.252,1.36,1.36,0,0,1-.608-.814,5.09,5.09,0,0,1-.176-1.484,4.057,4.057,0,0,1,.2-1.4,1.362,1.362,0,0,1,.642-.766,2.462,2.462,0,0,1,1.146-.233c.114,0,.251.008.409.024s.322.035.49.058.312.043.433.062l-.029.666c-.114-.013-.241-.025-.38-.038s-.277-.024-.414-.034-.248-.014-.337-.014a1.639,1.639,0,0,0-.814.167.892.892,0,0,0-.4.528,3.384,3.384,0,0,0-.114.979,4.648,4.648,0,0,0,.1,1.075.89.89,0,0,0,.385.576,1.634,1.634,0,0,0,.846.176q.133,0,.342-.014c.139-.01.281-.02.424-.034s.271-.022.385-.029l.019.656c-.127.025-.275.048-.443.067s-.332.036-.494.053-.3.024-.414.024Z" transform="translate(-173.405 -633.532)"/>
      <path id="Path_68629" data-name="Path 68629" d="M251.74,627.792V621.23h2.369a2.785,2.785,0,0,1,1.213.233,1.886,1.886,0,0,1,.761.652,2.775,2.775,0,0,1,.4,1,6.544,6.544,0,0,1,.119,1.3,7.308,7.308,0,0,1-.114,1.327,3.156,3.156,0,0,1-.395,1.075,1.945,1.945,0,0,1-.761.718,2.553,2.553,0,0,1-1.213.257Zm.838-.732h1.531a1.322,1.322,0,0,0,1.308-.8,3.008,3.008,0,0,0,.247-.842,6.648,6.648,0,0,0,.071-1,6.189,6.189,0,0,0-.071-.97,2.513,2.513,0,0,0-.247-.78,1.278,1.278,0,0,0-.494-.518,1.6,1.6,0,0,0-.814-.186h-1.531v5.1Z" transform="translate(-221.533 -620.983)"/>
      <path id="Path_68630" data-name="Path 68630" d="M302.1,640.427a2.052,2.052,0,0,1-1.141-.276,1.534,1.534,0,0,1-.6-.818,4.219,4.219,0,0,1-.186-1.351,3.58,3.58,0,0,1,.247-1.446,1.659,1.659,0,0,1,.7-.8,2.184,2.184,0,0,1,1.08-.252,1.9,1.9,0,0,1,1.46.528,2.43,2.43,0,0,1,.49,1.688l-.038.589H301a1.9,1.9,0,0,0,.266,1.07,1.061,1.061,0,0,0,.932.366c.178,0,.374,0,.589-.014s.43-.02.642-.034.391-.025.538-.038l.019.628q-.229.038-.562.076c-.222.025-.449.046-.68.062s-.445.024-.642.024Zm-1.1-2.778h2.33a1.948,1.948,0,0,0-.266-1.175,1.034,1.034,0,0,0-.865-.337,1.1,1.1,0,0,0-.889.352A1.747,1.747,0,0,0,301,637.649Z" transform="translate(-264.152 -633.523)"/>
      <path id="Path_68631" data-name="Path 68631" d="M339.283,641.045l-1.3-4.755h.875l1.046,4.062h.342l1.085-4.062h.838l-1.3,4.755h-1.579Z" transform="translate(-297.425 -634.236)"/>
      <path id="Path_68632" data-name="Path 68632" d="M379.621,640.427a2.052,2.052,0,0,1-1.141-.276,1.534,1.534,0,0,1-.6-.818,4.22,4.22,0,0,1-.186-1.351,3.581,3.581,0,0,1,.247-1.446,1.659,1.659,0,0,1,.7-.8,2.184,2.184,0,0,1,1.08-.252,1.9,1.9,0,0,1,1.46.528,2.43,2.43,0,0,1,.49,1.688l-.038.589h-3.11a1.9,1.9,0,0,0,.266,1.07,1.06,1.06,0,0,0,.932.366c.178,0,.374,0,.589-.014s.43-.02.642-.034.391-.025.538-.038l.019.628q-.229.038-.562.076c-.222.025-.449.046-.68.062s-.445.024-.642.024Zm-1.1-2.778h2.33a1.948,1.948,0,0,0-.266-1.175,1.034,1.034,0,0,0-.865-.337,1.1,1.1,0,0,0-.889.352A1.746,1.746,0,0,0,378.517,637.649Z" transform="translate(-332.37 -633.523)"/>
      <path id="Path_68633" data-name="Path 68633" d="M420.09,625.98v-6.81h.809v6.81Z" transform="translate(-369.682 -619.17)"/>
      <path id="Path_68634" data-name="Path 68634" d="M438.644,640.436a2.4,2.4,0,0,1-1.25-.276,1.459,1.459,0,0,1-.632-.833,4.7,4.7,0,0,1-.181-1.422,3.957,3.957,0,0,1,.2-1.355,1.481,1.481,0,0,1,.656-.8,2.426,2.426,0,0,1,1.208-.262,2.465,2.465,0,0,1,1.218.262,1.473,1.473,0,0,1,.656.8,3.934,3.934,0,0,1,.2,1.355,4.575,4.575,0,0,1-.186,1.422,1.5,1.5,0,0,1-.632.833A2.4,2.4,0,0,1,438.644,640.436Zm0-.695a1.4,1.4,0,0,0,.8-.186.911.911,0,0,0,.352-.594,5.278,5.278,0,0,0,.085-1.056,3.76,3.76,0,0,0-.109-1.018.89.89,0,0,0-.376-.542,1.812,1.812,0,0,0-1.5,0,.881.881,0,0,0-.38.542,3.8,3.8,0,0,0-.109,1.018,5.416,5.416,0,0,0,.085,1.056.916.916,0,0,0,.352.594A1.4,1.4,0,0,0,438.644,639.742Z" transform="translate(-384.193 -633.532)"/>
      <path id="Path_68635" data-name="Path 68635" d="M480.41,642.434v-6.848h.8v.332a2.82,2.82,0,0,1,.38-.194,3.126,3.126,0,0,1,.49-.167,2.059,2.059,0,0,1,.509-.067,1.53,1.53,0,0,1,1.332.581,3.18,3.18,0,0,1,.419,1.836,4.274,4.274,0,0,1-.214,1.489,1.449,1.449,0,0,1-.676.8,2.557,2.557,0,0,1-1.194.242,4.678,4.678,0,0,1-.584-.038c-.2-.025-.354-.048-.461-.066v2.1h-.8Zm1.778-2.7a1.441,1.441,0,0,0,.79-.186,1.007,1.007,0,0,0,.4-.589,3.822,3.822,0,0,0,.119-1.051,2.35,2.35,0,0,0-.276-1.318.893.893,0,0,0-.77-.385,1.889,1.889,0,0,0-.452.058,4.431,4.431,0,0,0-.443.133,1.984,1.984,0,0,0-.352.162v3.091l.433.053a4.516,4.516,0,0,0,.547.034Z" transform="translate(-422.764 -633.532)"/>
      <path id="Path_68636" data-name="Path 68636" d="M522.394,640.341v-4.755h.8v.323a3.925,3.925,0,0,1,.618-.276,2.173,2.173,0,0,1,.742-.143,2.1,2.1,0,0,1,.761.114,1.046,1.046,0,0,1,.466.361,4.286,4.286,0,0,1,.466-.214,4.5,4.5,0,0,1,.589-.186,2.622,2.622,0,0,1,.618-.076,1.861,1.861,0,0,1,1,.223,1.2,1.2,0,0,1,.485.742,5.5,5.5,0,0,1,.138,1.374v2.511h-.809v-2.473a5.322,5.322,0,0,0-.071-.966.87.87,0,0,0-.271-.528.955.955,0,0,0-.608-.162,2.41,2.41,0,0,0-.722.109,3.085,3.085,0,0,0-.542.214,3.826,3.826,0,0,1,.08.6c.016.238.024.484.024.737v2.464h-.8V637.9a5.891,5.891,0,0,0-.067-1,.838.838,0,0,0-.271-.533,1,1,0,0,0-.623-.162,2.191,2.191,0,0,0-.68.109,3.178,3.178,0,0,0-.528.214v3.805h-.8Z" transform="translate(-459.707 -633.532)"/>
      <path id="Path_68637" data-name="Path 68637" d="M588.881,640.427a2.052,2.052,0,0,1-1.141-.276,1.534,1.534,0,0,1-.6-.818,4.221,4.221,0,0,1-.186-1.351,3.58,3.58,0,0,1,.247-1.446,1.66,1.66,0,0,1,.7-.8,2.184,2.184,0,0,1,1.08-.252,1.9,1.9,0,0,1,1.46.528,2.43,2.43,0,0,1,.49,1.688l-.038.589h-3.11a1.9,1.9,0,0,0,.266,1.07,1.06,1.06,0,0,0,.932.366c.178,0,.374,0,.589-.014s.43-.02.642-.034.391-.025.538-.038l.019.628q-.229.038-.562.076c-.222.025-.449.046-.68.062s-.445.024-.642.024Zm-1.1-2.778h2.33a1.948,1.948,0,0,0-.266-1.175,1.034,1.034,0,0,0-.865-.337,1.1,1.1,0,0,0-.889.352A1.746,1.746,0,0,0,587.777,637.649Z" transform="translate(-516.52 -633.523)"/>
      <path id="Path_68638" data-name="Path 68638" d="M628.95,640.341v-4.755h.8v.323a2.776,2.776,0,0,1,.4-.19,4.017,4.017,0,0,1,.514-.162,2.171,2.171,0,0,1,.518-.067,1.826,1.826,0,0,1,1.008.233,1.218,1.218,0,0,1,.485.746,5.593,5.593,0,0,1,.133,1.359v2.511H632v-2.483a5.252,5.252,0,0,0-.071-.961.848.848,0,0,0-.276-.523,1.014,1.014,0,0,0-.632-.162,2.218,2.218,0,0,0-.47.053,3.583,3.583,0,0,0-.452.128,2.758,2.758,0,0,0-.352.152v3.8h-.8Z" transform="translate(-553.48 -633.532)"/>
      <path id="Path_68639" data-name="Path 68639" d="M669.948,630.678a1.724,1.724,0,0,1-.79-.152.88.88,0,0,1-.424-.528,3.435,3.435,0,0,1-.128-1.061v-2.425h-.656v-.695h.656V624.39h.809v1.427h1.456v.695h-1.456v2.2a5.073,5.073,0,0,0,.043.756.581.581,0,0,0,.181.38.7.7,0,0,0,.433.109c.064,0,.144,0,.242-.01s.2-.014.3-.024l.271-.024.048.676-.5.067a3.914,3.914,0,0,1-.49.038Z" transform="translate(-587.8 -623.764)"/>
      <path id="Path_68640" data-name="Path 68640" d="M717.73,627.792V621.23h2.425a3,3,0,0,1,1.085.172,1.325,1.325,0,0,1,.666.538,1.808,1.808,0,0,1,.228.966,2.186,2.186,0,0,1-.1.7,1.337,1.337,0,0,1-.276.48,1.66,1.66,0,0,1-.443.332,1.7,1.7,0,0,1,.514.276,1.286,1.286,0,0,1,.366.48,1.857,1.857,0,0,1,.138.775,2.274,2.274,0,0,1-.148.87,1.372,1.372,0,0,1-.423.571,1.748,1.748,0,0,1-.652.31,3.468,3.468,0,0,1-.851.095H717.73Zm.838-3.681h1.616a1.116,1.116,0,0,0,.851-.281,1.211,1.211,0,0,0,.262-.851.973.973,0,0,0-.29-.794,1.329,1.329,0,0,0-.889-.252h-1.55v2.178Zm0,2.977h1.655a1.969,1.969,0,0,0,.676-.1.832.832,0,0,0,.438-.356,1.4,1.4,0,0,0,.152-.719,1.147,1.147,0,0,0-.128-.575.834.834,0,0,0-.332-.332,1.39,1.39,0,0,0-.424-.148,2.416,2.416,0,0,0-.409-.038h-1.626v2.273Z" transform="translate(-631.607 -620.983)"/>
      <path id="Path_68641" data-name="Path 68641" d="M764.439,640.454a1.334,1.334,0,0,1-1.022-.371,1.885,1.885,0,0,1-.18-1.865,1.055,1.055,0,0,1,.5-.448,2.489,2.489,0,0,1,.823-.19l1.427-.143v-.39a.859.859,0,0,0-.209-.656.872.872,0,0,0-.608-.19c-.164,0-.356.006-.576.019s-.438.029-.656.048-.41.038-.576.058l-.038-.608c.152-.031.337-.064.557-.095s.448-.059.685-.08.455-.034.652-.034a2.175,2.175,0,0,1,.9.162,1.055,1.055,0,0,1,.518.5,1.978,1.978,0,0,1,.167.87v2.378a.361.361,0,0,0,.162.29.89.89,0,0,0,.361.119l-.029.628a3.032,3.032,0,0,1-.39-.024,2.4,2.4,0,0,1-.324-.062,1.148,1.148,0,0,1-.257-.119,1.575,1.575,0,0,1-.218-.167c-.12.05-.272.1-.456.162a5.474,5.474,0,0,1-.589.148,3.275,3.275,0,0,1-.628.062Zm.143-.666a3.212,3.212,0,0,0,.514-.043,4.587,4.587,0,0,0,.5-.109c.158-.044.288-.085.39-.124v-1.484l-1.322.124a.864.864,0,0,0-.589.242.842.842,0,0,0-.181.576.936.936,0,0,0,.176.6.613.613,0,0,0,.509.218Z" transform="translate(-671.506 -633.549)"/>
      <path id="Path_68642" data-name="Path 68642" d="M805.63,640.341v-4.755h.8v.323a2.778,2.778,0,0,1,.4-.19,4.021,4.021,0,0,1,.514-.162,2.179,2.179,0,0,1,.518-.067,1.826,1.826,0,0,1,1.008.233,1.217,1.217,0,0,1,.485.746,5.6,5.6,0,0,1,.133,1.359v2.511h-.809v-2.483a5.24,5.24,0,0,0-.071-.961.848.848,0,0,0-.276-.523,1.014,1.014,0,0,0-.632-.162,2.218,2.218,0,0,0-.47.053,3.581,3.581,0,0,0-.452.128,2.758,2.758,0,0,0-.352.152v3.8h-.8Z" transform="translate(-708.96 -633.532)"/>
      <path id="Path_68643" data-name="Path 68643" d="M848.44,625.98v-6.81h.8v3.975l.714-.019,1.284-1.9h.913l-1.484,2.2,1.56,2.558h-.913l-1.342-2.149-.732.038v2.112h-.8Z" transform="translate(-746.633 -619.17)"/>
      <path id="Path_68644" data-name="Path 68644" d="M905.19,627.792V621.23h.838v6.562Z" transform="translate(-796.573 -620.983)"/>
      <path id="Path_68645" data-name="Path 68645" d="M924.13,640.341v-4.755h.8v.323a2.776,2.776,0,0,1,.4-.19,4.019,4.019,0,0,1,.513-.162,2.179,2.179,0,0,1,.518-.067,1.826,1.826,0,0,1,1.008.233,1.217,1.217,0,0,1,.485.746,5.6,5.6,0,0,1,.133,1.359v2.511h-.809v-2.483a5.246,5.246,0,0,0-.071-.961.848.848,0,0,0-.276-.523,1.013,1.013,0,0,0-.632-.162,2.218,2.218,0,0,0-.47.053,3.584,3.584,0,0,0-.452.128,2.761,2.761,0,0,0-.352.152v3.8h-.8Z" transform="translate(-813.24 -633.532)"/>
      <path id="Path_68646" data-name="Path 68646" d="M966.63,640.463q-.229,0-.547-.029t-.623-.072c-.2-.029-.384-.055-.542-.08l.048-.685c.158.019.337.041.537.067s.395.046.584.062.346.024.466.024a2.426,2.426,0,0,0,.618-.066.69.69,0,0,0,.375-.228.737.737,0,0,0,.128-.466.547.547,0,0,0-.1-.352.759.759,0,0,0-.361-.209,4.469,4.469,0,0,0-.766-.152,4.767,4.767,0,0,1-.889-.218,1.019,1.019,0,0,1-.523-.39,1.345,1.345,0,0,1,.727-2.021,2.729,2.729,0,0,1,.838-.128c.184,0,.384.01.6.029s.425.043.627.072.377.055.523.08l-.019.685c-.152-.025-.331-.049-.538-.072s-.41-.041-.613-.058-.38-.024-.533-.024a1.945,1.945,0,0,0-.494.058.676.676,0,0,0-.347.2.6.6,0,0,0-.128.4.517.517,0,0,0,.095.324.7.7,0,0,0,.352.2,6.254,6.254,0,0,0,.751.167,4.614,4.614,0,0,1,.947.238,1.035,1.035,0,0,1,.518.4,1.379,1.379,0,0,1,.162.727,1.3,1.3,0,0,1-.5,1.175,2.483,2.483,0,0,1-1.374.328Z" transform="translate(-849.092 -633.558)"/>
      <path id="Path_68647" data-name="Path 68647" d="M1002.378,630.678a1.725,1.725,0,0,1-.79-.152.88.88,0,0,1-.423-.528,3.43,3.43,0,0,1-.129-1.061v-2.425h-.656v-.695h.656V624.39h.809v1.427h1.456v.695h-1.456v2.2a5.054,5.054,0,0,0,.043.756.582.582,0,0,0,.181.38.693.693,0,0,0,.433.109c.064,0,.144,0,.242-.01s.2-.014.3-.024l.271-.024.048.676-.5.067a3.913,3.913,0,0,1-.49.038Z" transform="translate(-880.341 -623.764)"/>
      <path id="Path_68648" data-name="Path 68648" d="M1031.85,621.394v-.884h.8v.884Zm0,5.763V622.4h.8v4.755Z" transform="translate(-908.035 -620.349)"/>
      <path id="Path_68649" data-name="Path 68649" d="M1048.028,630.678a1.724,1.724,0,0,1-.789-.152.88.88,0,0,1-.424-.528,3.439,3.439,0,0,1-.128-1.061v-2.425h-.656v-.695h.656V624.39h.809v1.427h1.455v.695H1047.5v2.2a5.076,5.076,0,0,0,.043.756.584.584,0,0,0,.181.38.693.693,0,0,0,.433.109c.063,0,.144,0,.242-.01s.2-.014.3-.024l.271-.024.048.676-.5.067a3.911,3.911,0,0,1-.49.038Z" transform="translate(-920.513 -623.764)"/>
      <path id="Path_68650" data-name="Path 68650" d="M1078.6,641.131a1.54,1.54,0,0,1-.937-.247,1.286,1.286,0,0,1-.448-.775,6.3,6.3,0,0,1-.119-1.346V636.28h.8v2.473a6.066,6.066,0,0,0,.061.97.808.808,0,0,0,.266.523.958.958,0,0,0,.6.162,2.327,2.327,0,0,0,.732-.109,3.017,3.017,0,0,0,.533-.223v-3.8h.809v4.755h-.809v-.323a4.145,4.145,0,0,1-.656.3,2.527,2.527,0,0,1-.838.124Z" transform="translate(-947.855 -634.227)"/>
      <path id="Path_68651" data-name="Path 68651" d="M1118.258,630.678a1.725,1.725,0,0,1-.79-.152.88.88,0,0,1-.424-.528,3.439,3.439,0,0,1-.128-1.061v-2.425h-.656v-.695h.656V624.39h.809v1.427h1.455v.695h-1.455v2.2a5.1,5.1,0,0,0,.043.756.581.581,0,0,0,.181.38.693.693,0,0,0,.433.109c.063,0,.144,0,.242-.01s.2-.014.3-.024l.271-.024.048.676-.5.067a3.915,3.915,0,0,1-.49.038Z" transform="translate(-982.316 -623.764)"/>
      <path id="Path_68652" data-name="Path 68652" d="M1147.841,640.427a2.052,2.052,0,0,1-1.141-.276,1.534,1.534,0,0,1-.6-.818,4.221,4.221,0,0,1-.186-1.351,3.582,3.582,0,0,1,.247-1.446,1.66,1.66,0,0,1,.7-.8,2.184,2.184,0,0,1,1.08-.252,1.9,1.9,0,0,1,1.46.528,2.43,2.43,0,0,1,.49,1.688l-.038.589h-3.11a1.9,1.9,0,0,0,.266,1.07,1.062,1.062,0,0,0,.932.366q.267,0,.589-.014c.216-.01.43-.02.642-.034s.391-.025.537-.038l.019.628q-.229.038-.561.076c-.222.025-.449.046-.68.062s-.445.024-.642.024Zm-1.1-2.778h2.33a1.948,1.948,0,0,0-.266-1.175,1.034,1.034,0,0,0-.865-.337,1.105,1.105,0,0,0-.889.352A1.748,1.748,0,0,0,1146.737,637.649Z" transform="translate(-1008.408 -633.523)"/>
    </g>
    <g id="Group_69656" data-name="Group 69656" transform="translate(56.06 23.964)">
      <rect id="Rectangle_6719" data-name="Rectangle 6719" width="2.964" height="22.768" transform="translate(0 0.014)" fill="#0c3c47"/>
      <rect id="Rectangle_6720" data-name="Rectangle 6720" width="2.964" height="22.768" transform="translate(82.452 0.014)" fill="#0c3c47"/>
      <rect id="Rectangle_6721" data-name="Rectangle 6721" width="17.58" height="2.964" transform="translate(6.655 19.834)" fill="#0c3c47"/>
      <path id="Path_68653" data-name="Path 68653" d="M720.281,202.881a10.5,10.5,0,0,0-7.66-3.111H699.93v22.768h12.691a10.229,10.229,0,0,0,7.669-3.348,12.188,12.188,0,0,0,3.008-8.262,11.422,11.422,0,0,0-3.018-8.047Zm-7.66,16.722h-9.727V202.7h9.727c4.56,0,7.744,3.42,7.744,8.316S717.108,219.6,712.621,219.6Z" transform="translate(-672.004 -199.763)" fill="#0c3c47"/>
      <path id="Path_68654" data-name="Path 68654" d="M948.181,210.918l-.27-.131.266-.138a5.02,5.02,0,0,0,2.611-4.809c0-3.769-2.621-6.02-7.011-6.02H927.63v22.768h16.388c4.284,0,7.161-2.624,7.161-6.53a5.371,5.371,0,0,0-3-5.141Zm-5.065,8.436H930.865V203.086h12.161c4.5,0,4.5,2.184,4.5,3.116,0,2.155-1.128,3.116-3.657,3.116H932.228v3.415h11.579c2.725,0,4.107,1.1,4.107,3.266,0,2.039-1.884,3.356-4.8,3.356Z" transform="translate(-872.381 -199.807)" fill="#0c3c47"/>
      <path id="Path_68655" data-name="Path 68655" d="M535.279,206.546h-7.257a1.777,1.777,0,0,1-2-1.9,1.817,1.817,0,0,1,2.023-1.939h11.186v-3H528.042c-3.042,0-5.086,1.951-5.086,4.855a4.756,4.756,0,0,0,5.065,4.9h7.257c1.536,0,2.192.6,2.192,2.023a1.915,1.915,0,0,1-2.192,2.107H522.85v3h12.428c3.163,0,5.129-1.94,5.129-5.065s-1.822-4.981-5.129-4.981Z" transform="translate(-516.172 -199.71)" fill="#0c3c47"/>
    </g>
    <g id="Group_69657" data-name="Group 69657" transform="translate(-0.002 0.376)">
      <path id="Path_68656" data-name="Path 68656" d="M84.881,321.982a3.475,3.475,0,0,1-3.356-1.039A40.114,40.114,0,0,1,67.211,318c-.816.448-3.872,1.561-8.92-2.9A3.19,3.19,0,0,1,56,314.19a27.187,27.187,0,0,0,6.956,5.655A26.348,26.348,0,0,0,67,321.723a26.7,26.7,0,0,0,4.3,1.2c.6.109,1.025.182,1.426.238l.016,0c.065.008.13.018.194.025.151.019.3.035.456.05.457.044.984.08,1.776.128.386.016.773.024,1.163.024a26.983,26.983,0,0,0,8.547-1.406Z" transform="translate(-49.28 -276.865)" fill="#007354"/>
      <path id="Path_68657" data-name="Path 68657" d="M349.315,235.97l-.095.1a75.019,75.019,0,0,1-5.9,5.417c-.041,1.962-.113,3.924-.148,5.886,1,.116,1.121.17,3.666.42l.128-.109a27.123,27.123,0,0,0,2.341-2.371l.535-.631a27.036,27.036,0,0,0,3.275-5.051,10.6,10.6,0,0,0-3.8-3.657Z" transform="translate(-301.992 -208.031)" fill="#81bd20"/>
      <path id="Path_68658" data-name="Path 68658" d="M9.4,31.716a98.976,98.976,0,0,1,.551-12.571,14.775,14.775,0,0,1-2.087-3.836A13.691,13.691,0,0,1,7.4,13.854,15.7,15.7,0,0,1,8.4,3.13,26.981,26.981,0,0,0,2.394,33.809c.166.343.368.76.628,1.29.065.125.131.247.2.371.564.961,1.333,2.151,1.934,3.044A2.974,2.974,0,0,0,7.43,39.567c-4.368-6.8.073-7.975,1.973-7.85Z" transform="translate(0.001 -3.13)" fill="#0c3c47"/>
      <path id="Path_68659" data-name="Path 68659" d="M81.79,13.041,77.871,9.15l-1.718,1.18A12.694,12.694,0,0,0,77.606,22.59l5.119-3.222-.935-6.326Z" transform="translate(-66.176 -8.428)" fill="#3ea9da"/>
      <path id="Path_68660" data-name="Path 68660" d="M166.829,253.321a62.468,62.468,0,0,1-7,4.491,42.074,42.074,0,0,1-13.98-3.051c.9-1.908.479-3.78-1.5-6.678a72.193,72.193,0,0,0,8.221-4.773,96.839,96.839,0,0,0,14.174,5.007q.052,3.723.095,5" transform="translate(-127.02 -214.49)" fill="url(#linear-gradient)"/>
      <path id="Path_68661" data-name="Path 68661" d="M106.155,109.288a71.184,71.184,0,0,1-8.252,4.765,13.008,13.008,0,0,0-4.68-3.031,104.759,104.759,0,0,1,.17-12.341,67.35,67.35,0,0,0,8.925-5.911l1.7.779q.718,3.774,2.133,15.74" transform="translate(-81.942 -82.014)" fill="url(#linear-gradient-2)"/>
      <path id="Path_68662" data-name="Path 68662" d="M219.243,71.389c-.047-.2-.092-.4-.142-.6-.5-.24-.932-.448-1.349-.638-.39-.176-.778-.344-1.17-.506-2.115-.851-5.023-1.664-14.907-4.356l-.12.114q-.389.373-.785.74c-.08.074-.16.149-.241.223q-.472.434-.952.862c-.04.035-.079.068-.118.1q-.434.383-.874.761l-.26.223q-.495.421-1,.836c.971,4.4,1.19,6.14,2.4,15.806a117.718,117.718,0,0,0,14.23,5.222,78.466,78.466,0,0,0,6.33-5.793c.064-.065.124-.128.186-.193,0-.012.032-.222.061-.616a50.633,50.633,0,0,0-1.295-12.187Z" transform="translate(-173.652 -57.831)" fill="url(#linear-gradient-3)"/>
    </g>
    <g id="Group_69658" data-name="Group 69658" transform="translate(-0.002 53.074)">
      <path id="Path_68663" data-name="Path 68663" d="M2.5,457.073q.032-.049.13-.032a3.643,3.643,0,0,1,.608.276,3.332,3.332,0,0,1,.544.39.109.109,0,0,1,.017.146l-.78,1.234c-.022.032-.071.022-.146-.032a1.992,1.992,0,0,0-.276-.187c-.151-.092-.368-.22-.649-.382l-.617.958c-.032.054-.086.049-.162-.017-.043-.032-.157-.108-.341-.227s-.449-.281-.8-.487c-.043-.032-.049-.065-.017-.1l.8-1.186q.032-.049.13-.032a2.431,2.431,0,0,1,.52.22,3.015,3.015,0,0,1,.455.317l.584-.86Zm1.3,2.906q.211-.292.26.13c.011.108.037.319.082.634s.1.742.162,1.283.116.955.154,1.274.062.528.073.625q.13,1.316.552,1.576a1.071,1.071,0,0,0,.714.146c.194,0,.308.114.341.341a1.7,1.7,0,0,1-.065.731c-.076.239-.168.368-.276.39a1.512,1.512,0,0,1-1.348-.455,3.826,3.826,0,0,1-.617-1.932,2.149,2.149,0,0,1-.942,1.056,1.964,1.964,0,0,1-.99.016,2.19,2.19,0,0,1-.958-.358.607.607,0,0,1-.26-.569,2.97,2.97,0,0,1,.308-.877,3.142,3.142,0,0,1,.422-.7,9.13,9.13,0,0,1,2.046-1.461q-.049-.666-.049-.991a.845.845,0,0,1,.146-.52l.244-.341Zm-.227,2.841a3.327,3.327,0,0,0-1.819,1.088c-.043.065-.028.119.049.162a1.942,1.942,0,0,0,.763.187,3.869,3.869,0,0,0,.991-.089.378.378,0,0,0,.179-.114c-.011-.173-.03-.362-.056-.569s-.062-.427-.106-.666Z" transform="translate(0.002 -455.269)"/>
      <path id="Path_68664" data-name="Path 68664" d="M49.715,519.99c.194.054.3.114.308.179a1.15,1.15,0,0,1,0,.39q-.113.893-.308.893a2.425,2.425,0,0,1-1.753-.991,3,3,0,0,1-2.208.991c-.108,0-.179-.082-.211-.244l-.13-.682a.415.415,0,0,1,.065-.341.393.393,0,0,1,.276-.194,3.011,3.011,0,0,0,2.4-1.072.254.254,0,0,1,.227-.13.13.13,0,0,1,.146.146.451.451,0,0,0,.032.194,2,2,0,0,0,1.153.86Zm-1.234,2.5q.032-.049.13-.032a3.648,3.648,0,0,1,.608.276,3.256,3.256,0,0,1,.544.39.108.108,0,0,1,.016.146L49,524.5c-.022.032-.071.021-.146-.032a1.985,1.985,0,0,0-.276-.187c-.151-.092-.368-.22-.649-.382l-.617.958c-.032.054-.086.049-.162-.016-.043-.032-.157-.108-.341-.228s-.449-.282-.8-.487c-.043-.032-.049-.065-.017-.1l.8-1.185q.032-.049.13-.032a2.425,2.425,0,0,1,.52.22,2.992,2.992,0,0,1,.455.317l.584-.86Z" transform="translate(-39.951 -509.613)"/>
      <path id="Path_68665" data-name="Path 68665" d="M82.51,507a.1.1,0,0,1,.146.032,7.425,7.425,0,0,0,1.559,1.656,4.065,4.065,0,0,0,2.208.91c.205.011.308.146.308.406q0,1.057-.308,1.056a4.059,4.059,0,0,1-2.289-.812,2.63,2.63,0,0,1-.194,1.024.422.422,0,0,1-.308.13,4.228,4.228,0,0,1-3.037-1.608c-.032-.043-.071-.037-.114.017q-.812,1.219-1.591,1.25c-.119,0-.2-.086-.244-.26a1.309,1.309,0,0,1,.017-1.039q.113-.162.227-.162,1.526-.049,1.867-.78A3.353,3.353,0,0,1,82.51,507Zm-.065,1.2a.1.1,0,0,0-.114-.032,1.14,1.14,0,0,0-.7.406c-.054.076-.049.136.017.179a3.777,3.777,0,0,0,.642.431,4.493,4.493,0,0,0,.755.317c.076.022.121.022.138,0s0-.054-.041-.1q-.162-.227-.341-.528C82.684,508.671,82.564,508.447,82.445,508.2Z" transform="translate(-69.125 -499.219)"/>
      <path id="Path_68666" data-name="Path 68666" d="M145.385,481.724c.194.054.3.114.308.179a1.151,1.151,0,0,1,0,.39q-.113.893-.308.893a2.425,2.425,0,0,1-1.753-.991,3,3,0,0,1-2.208.991c-.108,0-.179-.082-.211-.244l-.13-.682a.415.415,0,0,1,.065-.341.392.392,0,0,1,.276-.194,3.011,3.011,0,0,0,2.4-1.072.254.254,0,0,1,.227-.13.13.13,0,0,1,.146.146.451.451,0,0,0,.032.194,2,2,0,0,0,1.153.86Zm-2.24-6.381q.032-.049.13-.032a3.362,3.362,0,0,1,1.153.682.09.09,0,0,1,.017.13l-.763,1.234c-.032.054-.086.049-.162-.017-.043-.032-.157-.108-.341-.227s-.449-.281-.8-.487q-.081-.049-.032-.1l.8-1.185Z" transform="translate(-124.141 -471.347)"/>
      <path id="Path_68667" data-name="Path 68667" d="M178.395,486.608c.194.054.3.114.308.179a1.149,1.149,0,0,1,0,.39q-.113.893-.308.893a2.425,2.425,0,0,1-1.753-.991,3,3,0,0,1-2.208.991c-.108,0-.179-.082-.211-.244l-.13-.682a.415.415,0,0,1,.065-.341.393.393,0,0,1,.276-.194,3.011,3.011,0,0,0,2.4-1.071.254.254,0,0,1,.227-.13.13.13,0,0,1,.146.146.451.451,0,0,0,.032.194,2,2,0,0,0,1.153.86Zm-1.576-5.715q.032-.049.13-.032a3.643,3.643,0,0,1,.608.276,3.329,3.329,0,0,1,.544.39.109.109,0,0,1,.017.146l-.78,1.234c-.022.032-.071.022-.146-.032a1.988,1.988,0,0,0-.276-.187c-.151-.092-.368-.22-.649-.382l-.617.958c-.032.054-.086.049-.162-.017-.043-.032-.157-.108-.341-.227s-.449-.281-.8-.487c-.043-.032-.049-.065-.017-.1l.8-1.185q.032-.049.13-.032a2.432,2.432,0,0,1,.52.22,3.02,3.02,0,0,1,.455.317l.584-.86Z" transform="translate(-153.19 -476.231)"/>
      <path id="Path_68668" data-name="Path 68668" d="M209.1,453.6a32.421,32.421,0,0,0,.8,5.976q.421,1.154,1.218,1.315.828.162.455,1.364-.146.439-.438.487a1.27,1.27,0,0,1-1.136-.406,4.629,4.629,0,0,1-.958-1.981q-.488,2.079-1.624,2.1c-.1,0-.194-.151-.293-.455q-.227-.876.293-1.007a1.882,1.882,0,0,0,1.088-.569,2.086,2.086,0,0,0,.293-.974l-.6-6.267a.921.921,0,0,1,.082-.6l.39-.7q.1-.162.194-.13.1.016.1.162c0,.043.013.205.041.487s.062.682.106,1.2Z" transform="translate(-182.21 -450.613)"/>
      <path id="Path_68669" data-name="Path 68669" d="M236.805,452.225l.308-.7a.183.183,0,0,1,.179-.146c.076,0,.13.06.162.179a3.208,3.208,0,0,0,.649,1.153q.211.211-.293.78a.358.358,0,0,0-.114.26c.022.271.049.587.082.95s.07.772.114,1.226l.146,1.511q.1,1.038.121,1.811a6.375,6.375,0,0,1-.056,1.242q-.243,1.769-1.511,1.964-.275.049-.39-.8-.146-.86.146-1.088a.271.271,0,0,1,.194-.049,1.384,1.384,0,0,0,.925-.065,12.311,12.311,0,0,0-.017-1.38q-.049-.958-.211-2.451-.308-3-.39-3.751l-.049-.649Z" transform="translate(-207.817 -450.292)"/>
      <path id="Path_68670" data-name="Path 68670" d="M298.434,512.073a9.487,9.487,0,0,1,.974-.049,8.267,8.267,0,0,1,1.024.065,2.5,2.5,0,0,1,1.477.536.81.81,0,0,1,.179.731,3.287,3.287,0,0,1-.422,1.429,4.323,4.323,0,0,1-.877.828,8.949,8.949,0,0,1-5.667,2.063,3.3,3.3,0,0,1-2.013-.7,2.757,2.757,0,0,1-.991-1.656,5.407,5.407,0,0,1,.162-2.371,6.46,6.46,0,0,1,1.1-2.322c.1-.108.179-.125.244-.049a.229.229,0,0,1,.017.293,4.586,4.586,0,0,0-.925,2.679q.146,2.581,2.955,2.582a8.658,8.658,0,0,0,5.618-2.4c.032-.032.026-.071-.017-.114q-.5-.536-3.15-.552-.146,0-.065-.13l.373-.86Zm-.974,7.032q.032-.049.13-.032a3.638,3.638,0,0,1,.608.276,3.258,3.258,0,0,1,.544.39.109.109,0,0,1,.017.146l-.78,1.234c-.022.032-.071.022-.146-.032a2,2,0,0,0-.276-.187c-.151-.092-.368-.22-.649-.382l-.617.958c-.032.054-.086.049-.162-.017-.043-.032-.157-.108-.341-.227s-.449-.282-.8-.487c-.043-.032-.049-.065-.017-.1l.8-1.186q.032-.049.13-.032a2.428,2.428,0,0,1,.52.22,3.012,3.012,0,0,1,.455.317l.584-.86Z" transform="translate(-257.004 -502.347)"/>
      <path id="Path_68671" data-name="Path 68671" d="M348.161,487.611l-.422-.325a.34.34,0,0,1-.082-.438c.13-.325.257-.608.382-.852a3.768,3.768,0,0,1,.365-.593.407.407,0,0,1,.406-.13,2.921,2.921,0,0,1,1.412.634q.86.666.812,1.153a1.687,1.687,0,0,1-.5,1.2,2.187,2.187,0,0,1-.86.227,7.3,7.3,0,0,0-1.649.382,5.154,5.154,0,0,0-1.274.674q-1.2.909-1.348.227a3.548,3.548,0,0,1,.211-.373,1.469,1.469,0,0,1,.162-.211,7.963,7.963,0,0,1,2.387-1.576Z" transform="translate(-303.954 -480.109)"/>
      <path id="Path_68672" data-name="Path 68672" d="M415.817,467.015q.13.812-.065.974c-.119.108-.211.028-.276-.244a6.669,6.669,0,0,0-3.215-3.93c-.162-.1-.265-.1-.308,0l-.162.325a.281.281,0,0,1-.179.146.917.917,0,0,1-.422-.179l-1.412-.974a.628.628,0,0,1-.325-.5l-.032-1.721a.3.3,0,0,1,.211-.276.447.447,0,0,1,.406,0Q415.3,463.443,415.817,467.015Z" transform="translate(-360.292 -458.392)"/>
      <path id="Path_68673" data-name="Path 68673" d="M425.446,449.01l.438-.666c.184-.281.293-.222.325.179q.227,2.955.431,4.831a20.374,20.374,0,0,0,.414,2.671q.423,1.607,1.267,1.819.47.13.325,1.121-.049.34-.325.341-1.4,0-1.867-1.688a11.376,11.376,0,0,1-.244-1.169q-.113-.7-.211-1.608t-.162-1.405c-.043-.33-.071-.517-.082-.56a.3.3,0,0,0-.032-.089.241.241,0,0,0-.032-.041,3.045,3.045,0,0,0-.114.748,9.2,9.2,0,0,1-2.013,5.375,3.368,3.368,0,0,1-1.591.942q-.974.227-1.624.332a3.989,3.989,0,0,1-.958.073c-.054,0-.082-.038-.082-.114a.146.146,0,0,1,.1-.13,9.058,9.058,0,0,0,1.209-.56q.673-.365,1.518-.869a5.707,5.707,0,0,0,2.143-1.932,10.214,10.214,0,0,0,.86-3.345q.13-1.055.179-1.835t.032-1.25a6.807,6.807,0,0,1,.008-.772.955.955,0,0,1,.089-.4Z" transform="translate(-368.995 -447.467)"/>
      <path id="Path_68674" data-name="Path 68674" d="M499.946,502.214c.043-.054.1-.022.179.1a1.746,1.746,0,0,1,.146.812,4.161,4.161,0,0,1-.114,1.234q-.34,1.316-.845,1.332a2.558,2.558,0,0,1-2.029-.828,2.478,2.478,0,0,1-1.559,1.608,2.076,2.076,0,0,1-2.03-.845q-.844,1.219-1.624,1.218-.162,0-.293-.714c-.076-.466.022-.714.293-.748a3.1,3.1,0,0,0,2.436-1.64.138.138,0,0,1,.114-.082.154.154,0,0,1,.13.065c.054.076-.028.314-.244.714.173.314.612.481,1.315.5q1.267.032,1.932-2.192c.022-.076.054-.114.1-.114a.172.172,0,0,1,.146.065.222.222,0,0,1,.032.162l-.162.682a2.219,2.219,0,0,0,.991.552c.444.13.7.114.763-.049a1.63,1.63,0,0,0-.146-.942,2.842,2.842,0,0,1,.47-.893Z" transform="translate(-432.746 -495.004)"/>
      <path id="Path_68675" data-name="Path 68675" d="M583.225,455.451a18.4,18.4,0,0,0,1.916.106,3.881,3.881,0,0,0,1.088-.121q-.162-1.575-2.289-4.547-.763-1.071-1.332-1.794a10.886,10.886,0,0,0-.942-1.08l-.244.422a.263.263,0,0,1-.39-.065l-1.121-1.2a.758.758,0,0,1-.194-.634l.227-1.412c.022-.151.071-.227.146-.227q.34-.016,1.819,1.77.747.893,1.388,1.746t1.177,1.664q2.306,3.508,2.451,5.667.049.909-.47,1.056a8.008,8.008,0,0,1-3.313.1.258.258,0,0,1-.227-.114A1.121,1.121,0,0,1,583,455.6c.086-.119.162-.168.227-.146Zm1.056,6.381c-.293.054-.544.1-.755.146a3.684,3.684,0,0,0-.5.13c-.119.043-.293.11-.52.2s-.509.214-.845.365c-.14.065-.244.043-.308-.065-.13-.194.082-.461.634-.8-.4-.194-.628-.422-.682-.682a2.144,2.144,0,0,1,.552-1.608,1.673,1.673,0,0,1,1.445-.86.441.441,0,0,1,.438.552,1.7,1.7,0,0,1-.293.845c-.151.216-.282.244-.39.082a.587.587,0,0,0-.487-.308.529.529,0,0,0-.5.194.27.27,0,0,0,.016.422,2.363,2.363,0,0,0,1.591.536,1.125,1.125,0,0,0,.2-.024l.284-.056c.119-.022.216-.041.293-.056a.865.865,0,0,1,.179-.024.189.189,0,0,1,.194.114.217.217,0,0,1,.017.179c-.217.444-.406.682-.569.714Z" transform="translate(-510.147 -444.588)"/>
      <path id="Path_68676" data-name="Path 68676" d="M613.426,453.272a1.636,1.636,0,0,1-1.153.5c-.281,0-.422-.054-.422-.162s.13-.248.39-.39q2.632-1.462,2.988-5.342a23.318,23.318,0,0,0,.049-3.978,1.675,1.675,0,0,1,.049-.8c.119-.205.211-.368.276-.487s.108-.194.13-.227a.172.172,0,0,1,.162-.082c.076.022.119.06.13.114a3.32,3.32,0,0,0,.487,1.218.312.312,0,0,1,.017.487l-.455.47A14.371,14.371,0,0,1,616,446.56q-.106,1.048-.332,2.249a8.167,8.167,0,0,1-2.24,4.465Z" transform="translate(-538.432 -442.311)"/>
      <path id="Path_68677" data-name="Path 68677" d="M666.662,447.322q.34-.8.438-.032l.373,3.978q.617,5.375-.146,6.819c-.076.13-.136.162-.179.1a.45.45,0,0,1-.065-.276,19.921,19.921,0,0,0-.194-3.069q0-.065-.341-3.085l-.357-2.939a1.115,1.115,0,0,1,.065-.552l.406-.942Z" transform="translate(-586.245 -446.364)"/>
      <path id="Path_68678" data-name="Path 68678" d="M730.141,444.032c.119-.194.19-.179.211.049q.016.162.073.95t.17,2.2a38.869,38.869,0,0,0,.634,5.439q.423,1.2,1.072,1.412a.537.537,0,0,1,.39.455,1.122,1.122,0,0,1-.082.682c-.1.217-.2.325-.308.325q-1.591,0-1.884-2.841a5.337,5.337,0,0,1-.812,1.315,3.671,3.671,0,0,1-1.1.942A9.492,9.492,0,0,1,724.36,456q-3.33.113-4.173-1.462a1.963,1.963,0,0,1-.227-.877,4.4,4.4,0,0,1,1.024-2.761.245.245,0,0,1,.194-.1c.065,0,.108.038.13.114a.355.355,0,0,1-.082.244,2.608,2.608,0,0,0-.6,1.591q.342,1.672,3.475,1.721a12.068,12.068,0,0,0,4.417-.86,2.69,2.69,0,0,0,1.234-.958,1.363,1.363,0,0,0,.146-.7q.032-.536-.194-3.215-.113-1.348-.228-2.663a2.035,2.035,0,0,1,.114-1.234l.552-.812Zm-4.027,2.143a.1.1,0,0,1,.1.065.2.2,0,0,1,0,.114l-.341.86c-.054.13-.114.205-.179.227a1.079,1.079,0,0,0-.634.341c-.065.076.011.162.228.26a3.485,3.485,0,0,0,.382.114,4.459,4.459,0,0,0,.446.082q1.1.162-.032,1.77a1.485,1.485,0,0,1-.682.569,3.289,3.289,0,0,1-1.136.017,4.511,4.511,0,0,1-.731-.114c-.217-.054-.406-.108-.569-.162-.119-.054-.179-.125-.179-.211s.054-.146.162-.146c.282-.022.644-.037,1.088-.049a4.425,4.425,0,0,0,1.591-.179c.043-.022.054-.06.032-.114-.011-.032-.054-.06-.13-.082l-.472-.114a1.108,1.108,0,0,1-.617-.325.512.512,0,0,1-.146-.52q.488-2.046,1.819-2.4Z" transform="translate(-633.569 -443.707)"/>
      <path id="Path_68679" data-name="Path 68679" d="M824.036,481.724c.194.054.3.114.308.179a1.153,1.153,0,0,1,0,.39q-.113.893-.308.893a2.429,2.429,0,0,1-1.754-.991,3,3,0,0,1-2.208.991c-.108,0-.179-.082-.211-.244l-.13-.682a.415.415,0,0,1,.065-.341.392.392,0,0,1,.276-.194,3.011,3.011,0,0,0,2.4-1.072.254.254,0,0,1,.227-.13.13.13,0,0,1,.146.146.452.452,0,0,0,.032.194,2,2,0,0,0,1.153.86Zm-2.24-6.381q.032-.049.13-.032a3.364,3.364,0,0,1,1.153.682.09.09,0,0,1,.017.13l-.763,1.234c-.032.054-.086.049-.162-.017-.043-.032-.157-.108-.341-.227s-.449-.281-.8-.487q-.081-.049-.032-.1l.8-1.185Z" transform="translate(-721.357 -471.347)"/>
      <path id="Path_68680" data-name="Path 68680" d="M857.046,519.99c.194.054.3.114.308.179a1.149,1.149,0,0,1,0,.39q-.113.893-.308.893a2.429,2.429,0,0,1-1.754-.991,3,3,0,0,1-2.208.991c-.108,0-.179-.082-.211-.244l-.13-.682a.415.415,0,0,1,.065-.341.393.393,0,0,1,.276-.194,3.011,3.011,0,0,0,2.4-1.072.254.254,0,0,1,.227-.13.13.13,0,0,1,.146.146.451.451,0,0,0,.032.194,2,2,0,0,0,1.153.86Zm-2.16,3.279q.032-.049.13-.032a3.363,3.363,0,0,1,1.153.682.09.09,0,0,1,.017.13l-.763,1.234c-.032.054-.086.049-.162-.017-.043-.032-.157-.108-.341-.227s-.449-.282-.8-.487q-.081-.049-.032-.1l.8-1.185Z" transform="translate(-750.406 -509.613)"/>
      <path id="Path_68681" data-name="Path 68681" d="M887.113,445.217c.162-.39.26-.634.293-.731s.086-.146.162-.146.146.054.179.162a2.965,2.965,0,0,0,.7,1.186c.108.1.1.222-.017.373l-.358.5c.032.3.065.6.1.877s.065.552.1.812a23.805,23.805,0,0,1,.373,4.9q-.52,2.581-1.787,2.777h-.065q-.227-.065-.179-1.072c0-.248.082-.379.244-.39a1.47,1.47,0,0,0,1.234-.731q-.016-.634-.121-1.64t-.284-2.354q-.162-1.348-.276-2.175t-.146-1.136l-.162-.925a.759.759,0,0,1,.017-.293Z" transform="translate(-780.213 -444.097)"/>
      <path id="Path_68682" data-name="Path 68682" d="M920.912,447.322q.34-.8.438-.032l.373,3.978q.617,5.375-.146,6.819c-.076.13-.136.162-.179.1a.45.45,0,0,1-.065-.276,19.922,19.922,0,0,0-.194-3.069q0-.065-.341-3.085l-.358-2.939a1.114,1.114,0,0,1,.065-.552l.406-.942Z" transform="translate(-809.986 -446.364)"/>
      <path id="Path_68683" data-name="Path 68683" d="M984.1,478.889a.49.49,0,0,1,.325.422,1.44,1.44,0,0,1-.016.714c-.065.217-.168.325-.308.325q-1.055-.065-1.445-1.77l-.13-.552c-.032-.086-.065-.082-.1.017a2.686,2.686,0,0,1-1.3,1.688,6.281,6.281,0,0,1-2.727.293q-1.348-.1-.7-2.128c.054-.162.136-.248.244-.26s.184.06.228.211q.146.471.438.536a4.815,4.815,0,0,0,2.841-.162,1.365,1.365,0,0,0,.828-.91q.016-.1-.227-1.737-.113-.812-.179-1.323t-.1-.69a.966.966,0,0,1,.049-.552q.13-.275.227-.479c.065-.136.114-.246.146-.332s.086-.125.162-.114a.178.178,0,0,1,.146.162q.194,1.7.414,3.061t.446,2.363q.243,1.105.731,1.218Z" transform="translate(-860.205 -468.513)"/>
      <path id="Path_68684" data-name="Path 68684" d="M1033.777,493.506a.692.692,0,0,1,.373.666,4.578,4.578,0,0,1-1.543,3.945,6.345,6.345,0,0,0,1.169-.056,15.824,15.824,0,0,0,1.738-.332c.076-.011.146.043.211.162a1.393,1.393,0,0,1,0,1.024c-.065.173-.136.265-.211.276q-.407.081-.8.121a5.1,5.1,0,0,1-.747.024,2.425,2.425,0,0,1,.438,1.9,2.077,2.077,0,0,1-.455,1.136,1.214,1.214,0,0,1-.974.552q-1.737.016-2.111-3.3l-.455-.065v-.78a3.018,3.018,0,0,1-1.25.406c-.205,0-.358-.362-.455-1.088-.032-.228.119-.352.455-.373a6.964,6.964,0,0,0,1.9-.39,11.032,11.032,0,0,1,1.9-3.215q.617-.715.812-.617Zm-.78,1.884a.5.5,0,0,0-.227.049,2.749,2.749,0,0,0-1.3,1.787,4.6,4.6,0,0,0,2.03-1.3.189.189,0,0,0,.017-.244.553.553,0,0,0-.52-.293Zm-1.462,4.32a2.159,2.159,0,0,0,1.039,1.624,1.3,1.3,0,0,0,1.267-.114.211.211,0,0,0,.049-.325,3.446,3.446,0,0,0-2.354-1.186Z" transform="translate(-905.266 -487.351)"/>
      <path id="Path_68685" data-name="Path 68685" d="M1087.371,505.065q.552,0,.487.569c-.086.584-.25.882-.487.893a3.786,3.786,0,0,1-3-1.673q-2.047,1.688-2.939,1.673-.372,0-.5-.617-.146-.812.5-.845a3.814,3.814,0,0,0,.983-.194,3.9,3.9,0,0,0,.934-.47,2.563,2.563,0,0,0-1.477-.649c-.065-.011-.092-.071-.082-.179a2.226,2.226,0,0,1,.845-1.153,2.507,2.507,0,0,1,3.134-.082q.828.5.78.974-.049.488-1.136,1.169a2.714,2.714,0,0,0,1.964.584Z" transform="translate(-951.196 -494.688)"/>
      <path id="Path_68686" data-name="Path 68686" d="M1135.864,497.93q1.1.032,1.51,2.7a.325.325,0,0,1-.049.276l-.893,1.121a.268.268,0,0,1-.308.114,5.849,5.849,0,0,1-2.208-1.169q-.763,2.128-1.835,2.128c-.076,0-.157-.114-.244-.341q-.259-.812-.017-1.039a.393.393,0,0,1,.26-.082,1.922,1.922,0,0,0,1.429-.91q.227-.308,1.056-1.787.569-1.006,1.3-1.007Zm-1.168,1.591a2.941,2.941,0,0,0,1.461.746.857.857,0,0,0-1.461-.746Z" transform="translate(-995.906 -491.256)"/>
    </g>
  </g>
</svg>
