<svg id="isdb-logo-desktop" xmlns="http://www.w3.org/2000/svg" xmlns:xlink="http://www.w3.org/1999/xlink" width="128.945" height="67.6" viewBox="0 0 128.945 67.6">
  <defs>
    <linearGradient id="linear-gradient" x1="-1.215" y1="0.5" x2="1.523" y2="0.5" gradientUnits="objectBoundingBox">
      <stop offset="0" stop-color="#42ab37"/>
      <stop offset="0.487" stop-color="#23706b"/>
      <stop offset="0.839" stop-color="#234772"/>
      <stop offset="1" stop-color="#243772"/>
    </linearGradient>
    <linearGradient id="linear-gradient-2" x1="-0.294" y1="0.5" x2="2.406" y2="0.5" xlink:href="#linear-gradient"/>
    <linearGradient id="linear-gradient-3" x1="-0.211" y1="0.499" x2="2.216" y2="0.499" xlink:href="#linear-gradient"/>
    <linearGradient id="linear-gradient-4" x1="-0.194" y1="0.5" x2="2.105" y2="0.5" xlink:href="#linear-gradient"/>
    <linearGradient id="linear-gradient-5" x1="-1.022" y1="0.5" x2="1.381" y2="0.5" xlink:href="#linear-gradient"/>
    <linearGradient id="linear-gradient-6" x1="-2.34" y1="0.5" x2="0.875" y2="0.5" xlink:href="#linear-gradient"/>
    <linearGradient id="linear-gradient-7" x1="-2.43" y1="0.501" x2="0.75" y2="0.501" xlink:href="#linear-gradient"/>
    <linearGradient id="linear-gradient-8" x1="-4.671" y1="0.5" x2="-0.142" y2="0.5" xlink:href="#linear-gradient"/>
    <linearGradient id="linear-gradient-9" x1="-4.709" y1="0.499" x2="-0.303" y2="0.499" xlink:href="#linear-gradient"/>
    <linearGradient id="linear-gradient-10" x1="-10.395" y1="0.5" x2="-2.157" y2="0.5" xlink:href="#linear-gradient"/>
    <linearGradient id="linear-gradient-11" x1="-27.088" y1="0.501" x2="-7.128" y2="0.501" xlink:href="#linear-gradient"/>
    <linearGradient id="linear-gradient-12" x1="-40.505" y1="0.5" x2="-11.673" y2="0.5" xlink:href="#linear-gradient"/>
    <linearGradient id="linear-gradient-13" x1="-11.234" y1="0.5" x2="-2.497" y2="0.5" xlink:href="#linear-gradient"/>
    <linearGradient id="linear-gradient-14" x1="-4.494" y1="0.5" x2="0.19" y2="0.5" xlink:href="#linear-gradient"/>
    <linearGradient id="linear-gradient-15" x1="-8.303" y1="0.5" x2="-0.781" y2="0.5" xlink:href="#linear-gradient"/>
    <linearGradient id="linear-gradient-16" x1="-9.251" y1="0.499" x2="-1.529" y2="0.499" xlink:href="#linear-gradient"/>
    <linearGradient id="linear-gradient-17" x1="-1.21" y1="0.498" x2="1.712" y2="0.498" xlink:href="#linear-gradient"/>
    <linearGradient id="linear-gradient-18" x1="-2.857" y1="0.5" x2="1.191" y2="0.5" xlink:href="#linear-gradient"/>
    <linearGradient id="linear-gradient-19" x1="-4.797" y1="0.5" x2="0.609" y2="0.5" xlink:href="#linear-gradient"/>
    <linearGradient id="linear-gradient-20" x1="-1.559" y1="0.497" x2="2.127" y2="0.497" xlink:href="#linear-gradient"/>
    <linearGradient id="linear-gradient-21" x1="-3.14" y1="0.5" x2="3.653" y2="0.5" xlink:href="#linear-gradient"/>
    <linearGradient id="linear-gradient-22" x1="-0.499" y1="0.499" x2="2.741" y2="0.499" xlink:href="#linear-gradient"/>
    <linearGradient id="linear-gradient-23" x1="-0.947" y1="0.499" x2="3.55" y2="0.499" xlink:href="#linear-gradient"/>
    <linearGradient id="linear-gradient-24" x1="-3.097" y1="0.5" x2="1.604" y2="0.5" xlink:href="#linear-gradient"/>
    <linearGradient id="linear-gradient-25" x1="0.355" y1="0.5" x2="3.929" y2="0.5" xlink:href="#linear-gradient"/>
    <linearGradient id="linear-gradient-26" x1="1.233" y1="0.5" x2="6.291" y2="0.5" xlink:href="#linear-gradient"/>
    <linearGradient id="linear-gradient-27" x1="2.831" y1="0.496" x2="37.897" y2="0.496" xlink:href="#linear-gradient"/>
    <linearGradient id="linear-gradient-28" x1="0.14" y1="0.5" x2="4.38" y2="0.5" xlink:href="#linear-gradient"/>
    <linearGradient id="linear-gradient-29" x1="0.518" y1="0.5" x2="3.542" y2="0.5" xlink:href="#linear-gradient"/>
    <linearGradient id="linear-gradient-30" x1="1.479" y1="0.5" x2="6.023" y2="0.5" xlink:href="#linear-gradient"/>
    <linearGradient id="linear-gradient-31" x1="3.923" y1="0.499" x2="12.403" y2="0.499" xlink:href="#linear-gradient"/>
    <linearGradient id="linear-gradient-32" x1="3.007" y1="0.501" x2="10.507" y2="0.501" xlink:href="#linear-gradient"/>
    <linearGradient id="linear-gradient-33" x1="1.598" y1="0.499" x2="5.866" y2="0.499" xlink:href="#linear-gradient"/>
    <linearGradient id="linear-gradient-34" x1="0.632" y1="0.5" x2="3.963" y2="0.5" xlink:href="#linear-gradient"/>
    <linearGradient id="linear-gradient-35" x1="1.577" y1="0.5" x2="5.79" y2="0.5" xlink:href="#linear-gradient"/>
    <linearGradient id="linear-gradient-36" x1="10.679" y1="0.499" x2="30.573" y2="0.499" xlink:href="#linear-gradient"/>
    <linearGradient id="linear-gradient-37" x1="3.891" y1="0.5" x2="11.851" y2="0.5" xlink:href="#linear-gradient"/>
  </defs>
  <g id="Group_68719" data-name="Group 68719" transform="translate(0 0.903)">
    <g id="Group_68716" data-name="Group 68716" transform="translate(0.806)">
      <path id="Path_67952" data-name="Path 67952" d="M11.906,8.4V41.125H7.5V8.4Z" transform="translate(-7.5 -8.4)" fill="#222"/>
      <path id="Path_67953" data-name="Path 67953" d="M81.66,92.83V94c0,1.913.634,3.235,2.354,3.235,1.569,0,2.257-.978,2.257-2.934s-.591-3.084-3.579-5.04c-3.428-2.2-5.04-4.019-5.04-7.6,0-4.019,2.106-6.663,6.373-6.663,4.6,0,6.319,2.7,6.319,6.953v1.075H86.077V81.556c0-1.913-.591-2.837-2.053-2.837-1.419,0-2.01,1.032-2.01,2.6,0,1.612.537,2.354,2.934,3.923,4.116,2.644,5.728,4.406,5.728,8.576,0,4.707-2.257,7.158-6.814,7.158-5.384,0-6.663-3.428-6.663-7.007V92.84h4.46Z" transform="translate(-69.709 -67.842)" fill="#222"/>
      <path id="Path_67954" data-name="Path 67954" d="M229,8.4h6.567c7.007,0,8.329,3.923,8.329,9.6V30.733c0,5-.838,10.382-8.426,10.382H229Zm4.406,28.953h1.763c3.579,0,4.267-2.16,4.267-5.932V17.61c0-3.332-.591-5.438-4.267-5.438h-1.763Z" transform="translate(-205.195 -8.4)" fill="#222"/>
      <path id="Path_67955" data-name="Path 67955" d="M404,8.4h6.266c5.438,0,7.491,2.644,7.491,7.3v1.322c0,4.6-1.515,5.975-3.041,6.61,1.612.537,3.676,1.913,3.676,6.567v2.45c0,5.589-2.16,8.48-7.792,8.48H404Zm5.879,13.531c2.891,0,3.719-.978,3.719-4.46V16.1c0-2.794-.978-4.019-3.579-4.019h-1.763V21.92h1.623ZM408.267,37.5h1.859c3.138,0,3.966-1.472,3.966-4.944V30.3c0-3.332-1.032-4.75-4.213-4.75h-1.612V37.5Z" transform="translate(-361.387 -8.4)" fill="#222"/>
    </g>
    <g id="Group_68717" data-name="Group 68717" transform="translate(0.537 53.027)">
      <path id="Path_67956" data-name="Path 67956" d="M6.419,506v10.511H5V506Z" transform="translate(-5 -505.549)" fill="#222"/>
      <path id="Path_67957" data-name="Path 67957" d="M33.229,533.128v.376c0,.613.2,1.042.752,1.042.505,0,.72-.312.72-.946s-.193-.989-1.15-1.623c-1.1-.709-1.623-1.29-1.623-2.44a1.9,1.9,0,0,1,2.042-2.139c1.483,0,2.031.87,2.031,2.235v.344H34.648v-.473c0-.613-.193-.914-.666-.914-.451,0-.645.333-.645.838s.172.752.946,1.257c1.322.849,1.838,1.419,1.838,2.751,0,1.515-.72,2.3-2.182,2.3-1.73,0-2.139-1.1-2.139-2.246v-.365Z" transform="translate(-28.92 -524.649)" fill="#222"/>
      <path id="Path_67958" data-name="Path 67958" d="M85.4,512.762V501.8h1.4v10.962Z" transform="translate(-76.759 -501.8)" fill="#222"/>
      <path id="Path_67959" data-name="Path 67959" d="M116.253,534.074c0,.516,0,1.257.032,1.537H115a5.847,5.847,0,0,1-.1-.613,1.355,1.355,0,0,1-1.333.742c-1.193,0-1.666-1.086-1.666-2.332v-.14c0-1.924,1.257-2.5,2.708-2.5h.247v-1.128c0-.677-.1-1.075-.645-1.075s-.677.408-.677.978v.161h-1.386v-.14a1.888,1.888,0,0,1,2.106-2.16c1.494,0,2,.87,2,2.128Zm-1.365-2.225h-.333c-.806,0-1.322.333-1.322,1.4v.129c0,.645.215,1.118.774,1.118.634,0,.881-.451.881-1.6Z" transform="translate(-100.411 -524.649)" fill="#222"/>
      <path id="Path_67960" data-name="Path 67960" d="M170.111,529.872c0-1.558,0-1.967-.011-2.343h1.333a7.173,7.173,0,0,1,.064.72,1.432,1.432,0,0,1,1.4-.849,1.2,1.2,0,0,1,1.279.892,1.613,1.613,0,0,1,1.526-.892c.849,0,1.569.408,1.569,1.977v6.233H175.85v-5.965c0-.6-.14-.978-.656-.978-.645,0-.806.537-.806,1.365V535.6h-1.419v-5.911c0-.806-.226-1.021-.677-1.021-.645,0-.785.548-.785,1.386v5.556h-1.4Z" transform="translate(-152.356 -524.649)" fill="#222"/>
      <path id="Path_67961" data-name="Path 67961" d="M254.2,501.8h1.419v1.687H254.2Zm0,2.88h1.4v8.082h-1.4Z" transform="translate(-227.418 -501.8)" fill="#222"/>
      <path id="Path_67962" data-name="Path 67962" d="M286.967,532.989v.107c0,1.429-.365,2.644-2.16,2.644-1.741,0-2.106-1.182-2.106-2.848v-2.923c0-1.333.473-2.569,2.182-2.569,1.838,0,2.074,1.333,2.074,2.375v.312h-1.4v-.312c0-.677-.1-1.182-.709-1.182-.537,0-.742.408-.742,1.214V533.3c0,.634.129,1.247.742,1.247.57,0,.709-.43.709-1.225v-.333Z" transform="translate(-252.855 -524.649)" fill="#222"/>
      <path id="Path_67963" data-name="Path 67963" d="M360.5,506h2.106c2.246,0,2.676,1.257,2.676,3.084v4.095c0,1.6-.269,3.332-2.708,3.332H360.5Zm1.408,9.3h.57c1.15,0,1.365-.688,1.365-1.9v-4.439c0-1.075-.193-1.741-1.365-1.741h-.57Z" transform="translate(-322.294 -505.549)" fill="#222"/>
      <path id="Path_67964" data-name="Path 67964" d="M420.586,531.914v1.247c0,.709.14,1.386.838,1.386s.806-.6.806-1.257v-.043h1.354v.043c0,.881-.193,2.45-2.139,2.45-1.9,0-2.246-1.214-2.246-2.848v-2.8c0-1.15.4-2.687,2.246-2.687,1.655,0,2.171,1.161,2.171,2.687v1.827Zm1.677-1.118v-.914c0-.742-.14-1.29-.817-1.29-.634,0-.849.473-.849,1.3v.892h1.666Z" transform="translate(-374.685 -524.649)" fill="#222"/>
      <path id="Path_67965" data-name="Path 67965" d="M471.5,528.6c.247,1.494.817,4.825,1.021,6.513h.011c.14-1.591.806-4.922,1.075-6.513h1.4l-1.73,8.082h-1.591L470,528.6Z" transform="translate(-420.025 -525.72)" fill="#222"/>
      <path id="Path_67966" data-name="Path 67966" d="M527.586,531.914v1.247c0,.709.14,1.386.838,1.386s.806-.6.806-1.257v-.043h1.354v.043c0,.881-.193,2.45-2.139,2.45-1.9,0-2.246-1.214-2.246-2.848v-2.8c0-1.15.4-2.687,2.246-2.687,1.655,0,2.171,1.161,2.171,2.687v1.827Zm1.677-1.118v-.914c0-.742-.14-1.29-.817-1.29-.634,0-.849.473-.849,1.3v.892h1.666Z" transform="translate(-470.185 -524.649)" fill="#222"/>
      <path id="Path_67967" data-name="Path 67967" d="M582.3,512.762V501.8h1.4v10.962Z" transform="translate(-520.256 -501.8)" fill="#222"/>
      <path id="Path_67968" data-name="Path 67968" d="M615.224,529.936v3.224c0,1.73-.849,2.579-2.278,2.579-1.462,0-2.246-.849-2.246-2.569v-3.289A2.17,2.17,0,0,1,613,527.4C614.408,527.4,615.224,528.292,615.224,529.936Zm-3.117-.086v3.364c0,.752.236,1.257.871,1.257.57,0,.838-.408.838-1.279V529.84c0-.688-.2-1.214-.849-1.214C612.377,528.647,612.108,529.087,612.108,529.85Z" transform="translate(-545.604 -524.649)" fill="#222"/>
      <path id="Path_67969" data-name="Path 67969" d="M668.111,529.761c0-1.1,0-1.827-.011-2.332h1.333a5.006,5.006,0,0,1,.064.817,1.472,1.472,0,0,1,1.462-.946c1.128,0,1.666.774,1.666,2.364v3.364c0,1.827-.645,2.612-1.806,2.612a1.356,1.356,0,0,1-1.311-.742v3.332h-1.4Zm1.4,3.02c0,.881.14,1.591.871,1.591.634,0,.838-.484.838-1.322v-3.289c0-.838-.279-1.182-.774-1.182-.656,0-.924.484-.924,1.462v2.74Z" transform="translate(-596.835 -524.559)" fill="#222"/>
      <path id="Path_67970" data-name="Path 67970" d="M725.611,529.872c0-1.558,0-1.967-.011-2.343h1.333a7.209,7.209,0,0,1,.064.72,1.432,1.432,0,0,1,1.4-.849,1.2,1.2,0,0,1,1.279.892,1.613,1.613,0,0,1,1.526-.892c.849,0,1.569.408,1.569,1.977v6.233H731.35v-5.965c0-.6-.14-.978-.656-.978-.645,0-.806.537-.806,1.365V535.6H728.47v-5.911c0-.806-.226-1.021-.677-1.021-.645,0-.785.548-.785,1.386v5.556h-1.4Z" transform="translate(-648.156 -524.649)" fill="#222"/>
      <path id="Path_67971" data-name="Path 67971" d="M809.076,531.914v1.247c0,.709.14,1.386.838,1.386s.806-.6.806-1.257v-.043h1.365v.043c0,.881-.193,2.45-2.139,2.45-1.9,0-2.246-1.214-2.246-2.848v-2.8c0-1.15.4-2.687,2.246-2.687,1.655,0,2.171,1.161,2.171,2.687v1.827Zm1.677-1.118v-.914c0-.742-.14-1.29-.817-1.29-.634,0-.849.473-.849,1.3v.892h1.666Z" transform="translate(-721.432 -524.649)" fill="#222"/>
      <path id="Path_67972" data-name="Path 67972" d="M863.511,530.1c0-1.634,0-2.106-.011-2.483h1.333a4.964,4.964,0,0,1,.065.774,1.485,1.485,0,0,1,1.483-.892c.946,0,1.634.548,1.634,2.063v6.148H866.6v-5.868c0-.752-.247-1.075-.752-1.075-.613,0-.924.312-.924,1.591v5.352h-1.4V530.1Z" transform="translate(-771.235 -524.738)" fill="#222"/>
      <path id="Path_67973" data-name="Path 67973" d="M916.1,512.267h.892V510.3h1.4v1.967h1.075v1.247h-1.075v5.051c0,.4.064.742.57.742a1.836,1.836,0,0,0,.451-.043v1.075a2.226,2.226,0,0,1-.924.14c-.924,0-1.494-.312-1.494-1.655v-5.3H916.1Z" transform="translate(-818.182 -509.386)" fill="#222"/>
      <path id="Path_67974" data-name="Path 67974" d="M983.311,506h2.01c1.741,0,2.407.849,2.407,2.343v.43c0,1.483-.484,1.924-.978,2.128.516.172,1.182.613,1.182,2.107v.785c0,1.795-.688,2.719-2.5,2.719H983.3V506Zm1.891,4.342c.924,0,1.193-.312,1.193-1.429v-.441c0-.892-.312-1.29-1.15-1.29h-.57v3.16Zm-.527,5.008h.6c1.01,0,1.279-.473,1.279-1.591v-.72c0-1.075-.333-1.526-1.354-1.526h-.516v3.837Z" transform="translate(-878.16 -505.549)" fill="#222"/>
      <path id="Path_67975" data-name="Path 67975" d="M1043.153,534.074c0,.516,0,1.257.032,1.537h-1.29a5.878,5.878,0,0,1-.1-.613,1.355,1.355,0,0,1-1.333.742c-1.193,0-1.666-1.086-1.666-2.332v-.14c0-1.924,1.257-2.5,2.708-2.5h.247v-1.128c0-.677-.1-1.075-.645-1.075s-.677.408-.677.978v.161h-1.386v-.14a1.888,1.888,0,0,1,2.106-2.16c1.494,0,2,.87,2,2.128Zm-1.375-2.225h-.333c-.806,0-1.322.333-1.322,1.4v.129c0,.645.215,1.118.774,1.118.634,0,.881-.451.881-1.6Z" transform="translate(-927.695 -524.649)" fill="#222"/>
      <path id="Path_67976" data-name="Path 67976" d="M1096.911,530.1c0-1.634,0-2.106-.011-2.483h1.333a4.973,4.973,0,0,1,.064.774,1.485,1.485,0,0,1,1.483-.892c.946,0,1.634.548,1.634,2.063v6.148H1100v-5.868c0-.752-.247-1.075-.752-1.075-.613,0-.924.312-.924,1.591v5.352h-1.4V530.1Z" transform="translate(-979.551 -524.738)" fill="#222"/>
      <path id="Path_67977" data-name="Path 67977" d="M1157.986,508.37H1158c.376-.892,1.15-2.6,1.59-3.6h1.483c-.537,1.1-1.021,2.042-1.516,2.977l1.688,5.116h-1.537l-1.1-3.74c-.161.3-.473.924-.612,1.193v2.547h-1.4V501.9h1.4v6.47Z" transform="translate(-1032.835 -501.889)" fill="#222"/>
    </g>
    <g id="Group_68718" data-name="Group 68718" transform="translate(0 37.841)">
      <path id="Path_67978" data-name="Path 67978" d="M19.466,371.568a.685.685,0,0,0,.473-.183.6.6,0,0,0,.193-.451.585.585,0,0,0-.193-.451.7.7,0,0,0-.946,0,.623.623,0,0,0,0,.9A.666.666,0,0,0,19.466,371.568Z" transform="translate(-16.78 -369.247)" fill="#222"/>
      <path id="Path_67979" data-name="Path 67979" d="M41.266,371.479a.712.712,0,0,0,.484-.183.586.586,0,0,0,.193-.451.625.625,0,0,0-.193-.462.693.693,0,0,0-.484-.183.666.666,0,0,0-.473.183.623.623,0,0,0,0,.9A.616.616,0,0,0,41.266,371.479Z" transform="translate(-36.237 -369.157)" fill="#222"/>
      <path id="Path_67980" data-name="Path 67980" d="M74.566,472.1a.649.649,0,0,0-.473.193.625.625,0,0,0-.193.462.585.585,0,0,0,.193.451.736.736,0,0,0,.946,0,.585.585,0,0,0,.193-.451.625.625,0,0,0-.193-.462A.649.649,0,0,0,74.566,472.1Z" transform="translate(-65.958 -460.106)" fill="#222"/>
      <path id="Path_67981" data-name="Path 67981" d="M96.366,472.1a.632.632,0,0,0-.473.193.625.625,0,0,0-.193.462.585.585,0,0,0,.193.451.676.676,0,0,0,.473.172.7.7,0,0,0,.484-.172.585.585,0,0,0,.193-.451.608.608,0,0,0-.193-.462A.617.617,0,0,0,96.366,472.1Z" transform="translate(-85.415 -460.106)" fill="#222"/>
      <path id="Path_67982" data-name="Path 67982" d="M216.288,375.522a.739.739,0,0,0,.494-.183.616.616,0,0,0,.193-.473.632.632,0,0,0-.193-.473.681.681,0,0,0-.494-.193.7.7,0,0,0-.494.193.675.675,0,0,0,0,.946A.7.7,0,0,0,216.288,375.522Z" transform="translate(-192.429 -372.728)" fill="#222"/>
      <path id="Path_67983" data-name="Path 67983" d="M271.766,375.879a.692.692,0,0,0,.484-.183.585.585,0,0,0,.193-.451.625.625,0,0,0-.193-.462.692.692,0,0,0-.484-.183.666.666,0,0,0-.473.183.623.623,0,0,0,0,.9A.649.649,0,0,0,271.766,375.879Z" transform="translate(-241.964 -373.085)" fill="#222"/>
      <path id="Path_67984" data-name="Path 67984" d="M249.966,375.968a.685.685,0,0,0,.473-.183.6.6,0,0,0,.193-.451.585.585,0,0,0-.193-.451.7.7,0,0,0-.946,0,.623.623,0,0,0,0,.9A.685.685,0,0,0,249.966,375.968Z" transform="translate(-222.507 -373.174)" fill="#222"/>
      <path id="Path_67985" data-name="Path 67985" d="M37.626,377.666H34.208V368.8h-.967v8.866H29.189v-5.61h-.967v5.61H24.385v-5.61h-.967v5.61H20.473a3.377,3.377,0,0,0,.3-1.429,3.453,3.453,0,0,0-1.01-2.515,3.389,3.389,0,0,0-2.493-1.021,3.317,3.317,0,0,0-2.483,1.032,3.479,3.479,0,0,0-1,2.515,3.694,3.694,0,0,0,.29,1.429H10.35v-5.61H9.382v5.61H5.524v-6.212H4.557v.6H4A4.357,4.357,0,0,0,1.1,373,2.919,2.919,0,0,0,0,375.356a2.817,2.817,0,0,0,1.139,2.45A4.69,4.69,0,0,0,4,378.634H14.7a3.347,3.347,0,0,0,2.569,1.085,3.424,3.424,0,0,0,2.579-1.085H38.593V368.8h-.967v8.866Zm-33.069,0H3.6a2.837,2.837,0,0,1-1.881-.623,2.043,2.043,0,0,1-.752-1.666,2.109,2.109,0,0,1,.8-1.7,2.773,2.773,0,0,1,1.838-.656h.957Zm14.519.365a2.488,2.488,0,0,1-1.816.72,2.376,2.376,0,0,1-1.784-.742,2.625,2.625,0,0,1,0-3.59,2.383,2.383,0,0,1,1.795-.742,2.5,2.5,0,0,1,2.547,2.558A2.4,2.4,0,0,1,19.076,378.032Z" transform="translate(0 -367.908)" fill="#222"/>
      <path id="Path_67986" data-name="Path 67986" d="M431.288,420.811a.739.739,0,0,0,.494-.183.616.616,0,0,0,.193-.473.632.632,0,0,0-.193-.473.673.673,0,0,0-.494-.183.739.739,0,0,0-.494.183.675.675,0,0,0,0,.946A.7.7,0,0,0,431.288,420.811Z" transform="translate(-384.323 -413.159)" fill="#222"/>
      <path id="Path_67987" data-name="Path 67987" d="M431.288,442.211a.739.739,0,0,0,.494-.183.616.616,0,0,0,.193-.473.632.632,0,0,0-.193-.473.673.673,0,0,0-.494-.183.739.739,0,0,0-.494.183.675.675,0,0,0,0,.946A.657.657,0,0,0,431.288,442.211Z" transform="translate(-384.323 -432.259)" fill="#222"/>
      <path id="Path_67988" data-name="Path 67988" d="M423.75,399.734a3.317,3.317,0,0,0-2.483,1.032,3.479,3.479,0,0,0-1,2.515,3.694,3.694,0,0,0,.29,1.429h-2.773V399.1h-2.16a2.919,2.919,0,0,0-1.892.57,2.585,2.585,0,0,0-.849,2.085v4.471h-2.827a4.536,4.536,0,0,1-2.117-.548l-.441.86a6.012,6.012,0,0,0,2.87.656h3.482v-5.6a1.358,1.358,0,0,1,.494-1.139,2.046,2.046,0,0,1,1.29-.387h1.182v5.61h4.363a3.287,3.287,0,0,0,2.526,1.086,3.469,3.469,0,0,0,2.526-1,3.324,3.324,0,0,0,1.032-2.493,3.452,3.452,0,0,0-3.514-3.536Zm1.795,5.341a2.488,2.488,0,0,1-1.816.72,2.359,2.359,0,0,1-1.784-.742,2.625,2.625,0,0,1,0-3.59,2.383,2.383,0,0,1,1.795-.742,2.5,2.5,0,0,1,2.547,2.558A2.4,2.4,0,0,1,425.545,405.075Z" transform="translate(-363.705 -394.952)" fill="#222"/>
      <rect id="Rectangle_6410" data-name="Rectangle 6410" width="0.967" height="6.824" transform="translate(66.697 2.278)" fill="#222"/>
      <path id="Path_67989" data-name="Path 67989" d="M622.787,368.528a1.856,1.856,0,0,1-.462,1.343,1.719,1.719,0,0,1-1.322.494,2.009,2.009,0,0,1-1.4-.484,1.64,1.64,0,0,1-.559-1.214V365.24h-.967v3.375a1.542,1.542,0,0,1-.473,1.236,1.728,1.728,0,0,1-1.171.408h-1.881V365.25h-.967v5.008h-2.547a2.978,2.978,0,0,1-1.354-.258,1.892,1.892,0,0,1-.8-.8,3.44,3.44,0,0,0,.161-1.032v-6.706h.892V360.5h-1.87v7.673a1.9,1.9,0,0,1-.634,1.58,2.62,2.62,0,0,1-1.7.505H602.4l.118.967h2.859c1.58,0,2.644-.43,3.192-1.3a2.343,2.343,0,0,0,.838.935,2.666,2.666,0,0,0,1.376.344v.011h5.642a2.422,2.422,0,0,0,2.149-1.118,2.6,2.6,0,0,0,2.4,1.236c1.859,0,2.784-.989,2.784-2.966v-4.428h-.967Z" transform="translate(-537.659 -360.5)" fill="#222"/>
      <rect id="Rectangle_6411" data-name="Rectangle 6411" width="0.967" height="6.824" transform="translate(89.438 2.278)" fill="#222"/>
      <path id="Path_67990" data-name="Path 67990" d="M825.5,472.608c0,.978.451,1.462,1.365,1.462h.494v-.548h-.408c-.505,0-.752-.226-.752-.677h1.548V472.2H825.5Z" transform="translate(-736.782 -460.195)" fill="#222"/>
      <path id="Path_67991" data-name="Path 67991" d="M819.664,368.174a1.9,1.9,0,0,1-.634,1.58,2.621,2.621,0,0,1-1.7.505H814l.118.967h2.859a4.113,4.113,0,0,0,2.762-.8,2.869,2.869,0,0,0,.9-2.257v-6.706h.892V360.5h-1.87Z" transform="translate(-726.518 -360.5)" fill="#222"/>
      <rect id="Rectangle_6412" data-name="Rectangle 6412" width="0.967" height="9.834" transform="translate(97.466 0.892)" fill="#222"/>
      <path id="Path_67992" data-name="Path 67992" d="M1007.093,403.709H1005.3v-.484a.7.7,0,0,1,.161-.505.687.687,0,0,1,.537-.172h.709V402h-.731a1.365,1.365,0,0,0-1.032.355,1.562,1.562,0,0,0-.344,1.118v.881h2.493Z" transform="translate(-896.634 -397.54)" fill="#222"/>
      <path id="Path_67993" data-name="Path 67993" d="M1079.088,375.522a.739.739,0,0,0,.494-.183.616.616,0,0,0,.193-.473.632.632,0,0,0-.193-.473.68.68,0,0,0-.494-.193.7.7,0,0,0-.495.193.675.675,0,0,0,0,.946A.72.72,0,0,0,1079.088,375.522Z" transform="translate(-962.502 -372.728)" fill="#222"/>
      <path id="Path_67994" data-name="Path 67994" d="M1113.6,471.8a.739.739,0,0,0-.494.183.642.642,0,0,0-.2.473.593.593,0,0,0,.193.462.72.72,0,0,0,.494.183.739.739,0,0,0,.494-.183.648.648,0,0,0,0-.924A.656.656,0,0,0,1113.6,471.8Z" transform="translate(-993.294 -459.838)" fill="#222"/>
      <path id="Path_67995" data-name="Path 67995" d="M994.722,377.666h-3.1v-5.61h-.967v5.61h-2.7v-5.61h-.967v5.61h-2.923V368.8H983.1v8.866H979.16a2.949,2.949,0,0,1-1.859-.505,2.018,2.018,0,0,1-.634-1.655V373.2H975.7v2.45a3.7,3.7,0,0,0,.215,1.2,2.31,2.31,0,0,0,.677,1.021,2.873,2.873,0,0,0,1.085.591,6.233,6.233,0,0,0,1.655.183H995.7v-9.834h-.967v8.856Z" transform="translate(-870.839 -367.908)" fill="#222"/>
      <rect id="Rectangle_6413" data-name="Rectangle 6413" width="0.967" height="9.834" transform="translate(127.634 0.892)" fill="#222"/>
    </g>
  </g>
  <g id="Group_68720" data-name="Group 68720" transform="translate(69.261)">
    <path id="Path_67996" data-name="Path 67996" d="M899.555,103.206a2.194,2.194,0,0,1-.419,1.279l2.074,3.041,4.815.032,1.021.011.344-.742,1.7-3.665-3.031-4.138-5.363-.226-1.795,2.848A2.2,2.2,0,0,1,899.555,103.206Z" transform="translate(-871.554 -88.182)" fill="url(#linear-gradient)"/>
    <path id="Path_67997" data-name="Path 67997" d="M819.813,72.642a2.175,2.175,0,0,1,.752.14L822.328,70l-2.612-3-.828.064-4.084.3-2.8,3.6,2.225,3.59,2.074-.161,1.408-.107A2.178,2.178,0,0,1,819.813,72.642Z" transform="translate(-793.994 -59.799)" fill="url(#linear-gradient-2)"/>
    <path id="Path_67998" data-name="Path 67998" d="M811.351,153.08l3.59-.107.215-.4,2.633-4.847-1.977-2.912a2.153,2.153,0,0,1-3.224-1.515l-1.29.1-2.128.161-2.869,4.8,1.311,2.321a2.985,2.985,0,0,1,3.74,2.4Z" transform="translate(-788.906 -127.899)" fill="url(#linear-gradient-3)"/>
    <path id="Path_67999" data-name="Path 67999" d="M810.759,241.8a3.022,3.022,0,0,1-3,2.655,3.558,3.558,0,0,1-.591-.054l-1.558,3.17H805.6l2.708,4.514H814.9l2.837-4.89-3.4-5.492Z" transform="translate(-788.281 -215.724)" fill="url(#linear-gradient-4)"/>
    <path id="Path_68000" data-name="Path 68000" d="M902.784,188.443l-.57-.011-5.266-.032-2.762,5.094-.086.15,3.138,5.083,5.933-.172,2.536-5.245-1.462-2.44Z" transform="translate(-867.27 -168.152)" fill="url(#linear-gradient-5)"/>
    <path id="Path_68001" data-name="Path 68001" d="M975.061,71.072l-.87-.172-.914,1.591-.677,1.161,3.031,4.138,2.235.322,2.386.333.86-2.633.161-.516L978.3,71.7Z" transform="translate(-937.334 -63.28)" fill="url(#linear-gradient-6)"/>
    <path id="Path_68002" data-name="Path 68002" d="M989.641,148.236a1.673,1.673,0,0,1,.742-1.4l-1.644-2.676-.054-.1-2.407-.344-2.246-.322-1.891,4.073-.14.312,1.462,2.44,1.462,2.44,4.772.011.15-.408.924-2.461A1.664,1.664,0,0,1,989.641,148.236Z" transform="translate(-945.724 -127.989)" fill="url(#linear-gradient-7)"/>
    <path id="Path_68003" data-name="Path 68003" d="M1054.925,123.623l1.107.118.967.107.559-3.074-1.967-3.289-.354-.591-.409-.118-2.418-.677-.161.505-.849,2.622.075.118,1.752,2.848h.054A1.664,1.664,0,0,1,1054.925,123.623Z" transform="translate(-1007.665 -103.622)" fill="url(#linear-gradient-8)"/>
    <path id="Path_68004" data-name="Path 68004" d="M1065.7,194.736l-1.01-.107-1.215-.129a1.7,1.7,0,0,1-1.15.978l-.806,2.149-.419,1.107,2.139,4.46,3.074-.312,1.118-4Z" transform="translate(-1016.322 -173.597)" fill="url(#linear-gradient-9)"/>
    <path id="Path_68005" data-name="Path 68005" d="M1111.737,164.7l-.537,2.966,1.73,4.138,1.386.011.269-3.041-1.386-3.439-.8-.344Z" transform="translate(-1061.038 -146.999)" fill="url(#linear-gradient-10)"/>
    <path id="Path_68006" data-name="Path 68006" d="M1137.3,156.8l-.2-1.107-.677-2.128-.441-1.29-.075-.075.129,1.526Z" transform="translate(-1083.083 -135.843)" fill="url(#linear-gradient-11)"/>
    <path id="Path_68007" data-name="Path 68007" d="M1148.644,209.154l-.043-.021-.054-.032-.247,2.773.677,3.181.1-.032.193-2.784Z" transform="translate(-1094.151 -186.628)" fill="url(#linear-gradient-12)"/>
    <path id="Path_68008" data-name="Path 68008" d="M1118.518,239.2h-.021l-1.1,3.923,2.343,3.719.548-1,.3-3.332-.7-3.3Z" transform="translate(-1066.572 -213.493)" fill="url(#linear-gradient-13)"/>
    <path id="Path_68009" data-name="Path 68009" d="M1032.7,62.186l2.977,3.611,2.773.774.2-1.58-1.72-2.01-.924-1.085-2.719-1.1Z" transform="translate(-990.975 -54.266)" fill="url(#linear-gradient-14)"/>
    <path id="Path_68010" data-name="Path 68010" d="M1072.887,68.078l1.021.613-.043-.172-2.988-3.278-.666-.441-.011.129.989,1.15Z" transform="translate(-1024.444 -57.836)" fill="url(#linear-gradient-15)"/>
    <path id="Path_68011" data-name="Path 68011" d="M1094.75,105.6l-.151,1.526,2.289,3.837.6.258.72.312-.15-1.741-.011-.14-1.118-1.827-.86-1.429-.731-.441Z" transform="translate(-1046.222 -94.251)" fill="url(#linear-gradient-16)"/>
    <path id="Path_68012" data-name="Path 68012" d="M897.046,39.879l-3.589-.279h-.043L891.2,42.093l2.59,2.977,5.374.226.677-1.161.9-1.569-1.472-1.376-.591-.548a1.193,1.193,0,0,1-.441.086A1.3,1.3,0,0,1,897.046,39.879Z" transform="translate(-864.682 -35.344)" fill="url(#linear-gradient-17)"/>
    <path id="Path_68013" data-name="Path 68013" d="M966.911,28.873l.731.677,1.451,1.343,4.095.785.6-1.408L971.1,27.96l-3.676-.86-.032.043-.494.559a1.256,1.256,0,0,1,.161.6A1.545,1.545,0,0,1,966.911,28.873Z" transform="translate(-932.246 -24.188)" fill="url(#linear-gradient-18)"/>
    <path id="Path_68014" data-name="Path 68014" d="M1019.159,30.954v-.247l-2.4-2-2.4-1.408-.365.387,2.59,2.235Z" transform="translate(-974.284 -24.366)" fill="url(#linear-gradient-19)"/>
    <path id="Path_68015" data-name="Path 68015" d="M894.865,9.5l-1.365.892,1.935,1.44,3.676.29a1.258,1.258,0,0,1,1.171-.8,1.318,1.318,0,0,1,.419.075l.269-.29.1-.107-2.031-1.257L894.929,9.5Z" transform="translate(-866.735 -8.479)" fill="url(#linear-gradient-20)"/>
    <path id="Path_68016" data-name="Path 68016" d="M904.076.118,907.805.3l-.441-.075L903.7,0l.29.118Z" transform="translate(-875.839)" fill="url(#linear-gradient-21)"/>
    <path id="Path_68017" data-name="Path 68017" d="M830.288,21.9l-4.256.441L823.7,24.426l.365.441,1.15,1.343,4.062-.3.86-.064,2.171-2.45-.107-.086Z" transform="translate(-804.436 -19.546)" fill="url(#linear-gradient-22)"/>
    <path id="Path_68018" data-name="Path 68018" d="M839.056,4.848l4.32-.451.441-.29.784-.516-.709-.29-4.116.387-1.376.8.58.322Z" transform="translate(-817.557 -2.945)" fill="url(#linear-gradient-23)"/>
    <path id="Path_68019" data-name="Path 68019" d="M956.559,7.165l3.718.871.247-.269.107-.107-.441-.247L955.108,5.8l-.408.226.247.15Z" transform="translate(-921.357 -5.177)" fill="url(#linear-gradient-24)"/>
    <path id="Path_68020" data-name="Path 68020" d="M758,54.779l.613,1.462,3.267-.72L763,55.274l2.805-3.6-1.279-1.5L764.3,49.9l-4.009.967-2.16,2.461a1.387,1.387,0,0,1,.161.634A1.448,1.448,0,0,1,758,54.779Z" transform="translate(-745.797 -44.537)" fill="url(#linear-gradient-25)"/>
    <path id="Path_68021" data-name="Path 68021" d="M723.466,51.359a1.321,1.321,0,0,1,.505.1l2.042-2.3-.344-.57-.054-.086-2.45,1.128L721.059,51.8l-.559.6.161.946,1.451-.623h0A1.351,1.351,0,0,1,723.466,51.359Z" transform="translate(-712.327 -43.288)" fill="url(#linear-gradient-26)"/>
    <path id="Path_68022" data-name="Path 68022" d="M763.3,37.726l.086-.064.2-.161-.8.462.054-.032Z" transform="translate(-750.081 -33.47)" fill="url(#linear-gradient-27)"/>
    <path id="Path_68023" data-name="Path 68023" d="M779.531,21.164l2.246-1.945-.054-.021-.7-.4-3.525.924-1.612,1.268-.688.537.4.656Z" transform="translate(-761.149 -16.78)" fill="url(#linear-gradient-28)"/>
    <path id="Path_68024" data-name="Path 68024" d="M741.933,109.378l-1.128,1.795-1.5,2.418,1.644,3.762,4.578-.537.183-.021,2.816-4.815-2.182-3.579-1.01.226Z" transform="translate(-729.107 -96.75)" fill="url(#linear-gradient-29)"/>
    <path id="Path_68025" data-name="Path 68025" d="M700.536,102.585l1.483-.376.774-.193,1.58-2.526,1.064-1.7-.6-1.451a1.359,1.359,0,0,1-.3.032,1.337,1.337,0,0,1-1.021-.473l-1.9.86-1.805,2.805-.505.774.376,1.752A1.732,1.732,0,0,1,700.536,102.585Z" transform="translate(-693.406 -85.593)" fill="url(#linear-gradient-30)"/>
    <path id="Path_68026" data-name="Path 68026" d="M664.076,149.753l1.279-.312,1.1-2.515a1.683,1.683,0,0,1-.634-1.311A1.7,1.7,0,0,1,666.989,144l-.258-1.2-1.257.688-.2.107-1.569,3.654.193,2.558Z" transform="translate(-661.632 -127.453)" fill="url(#linear-gradient-31)"/>
    <path id="Path_68027" data-name="Path 68027" d="M683.418,91.46l-.14-.86-.849.6-.505.355-2.139,3.181-.086,1.15,1.311-.709Z" transform="translate(-675.912 -80.863)" fill="url(#linear-gradient-32)"/>
    <path id="Path_68028" data-name="Path 68028" d="M687.965,163.915a1.921,1.921,0,0,1-.247-.021l-1.118,2.558,1.107,3.7,3.235-.344,1.4-2.977.8-1.7-.279-.634-1.354-3.1-.828.215-1.032.269a1.78,1.78,0,0,1,.032.344A1.7,1.7,0,0,1,687.965,163.915Z" transform="translate(-682.071 -144.054)" fill="url(#linear-gradient-33)"/>
    <path id="Path_68029" data-name="Path 68029" d="M741.281,199.661A3.03,3.03,0,0,1,742.7,197.1l-1.247-2.2-.419.054-4.353.516-.8,1.7-1.386,2.966,2.257,4.761H741.6l1.268-2.569A3.028,3.028,0,0,1,741.281,199.661Z" transform="translate(-724.823 -173.954)" fill="url(#linear-gradient-34)"/>
    <path id="Path_68030" data-name="Path 68030" d="M687.8,249.058l-1.2,4.041,1.795,4.062,3.246.408,1.58-4.105-2.246-4.664Z" transform="translate(-682.071 -222.061)" fill="url(#linear-gradient-35)"/>
    <path id="Path_68031" data-name="Path 68031" d="M645.686,192.4l-.634.591a26.507,26.507,0,0,0-.591,5.685l.419-.011.978-4.062Z" transform="translate(-644.456 -171.722)" fill="url(#linear-gradient-36)"/>
    <path id="Path_68032" data-name="Path 68032" d="M659.3,213.2l-1.021.247-.484.118-.892,3.708.86,3.439,1.515.161,1.128-4.009Z" transform="translate(-655.563 -190.287)" fill="url(#linear-gradient-37)"/>
  </g>
</svg>
