<svg xmlns="http://www.w3.org/2000/svg" width="10.328" height="11.002" viewBox="0 0 10.328 11.002">
  <g id="Group_68995" data-name="Group 68995" transform="translate(-1476 -1212)">
    <path id="Path_66737" data-name="Path 66737" d="M10.5,29.486l4.276-4.276a.718.718,0,0,1,1.015,1.015l-4.783,4.783a.718.718,0,0,1-1.015,0L5.21,26.225A.718.718,0,0,1,6.225,25.21L10.5,29.486Z" transform="translate(1507.219 1207) rotate(90)" fill="#222"/>
    <path id="Path_68149" data-name="Path 68149" d="M10.5,29.486l4.276-4.276a.718.718,0,0,1,1.015,1.015l-4.783,4.783a.718.718,0,0,1-1.015,0L5.21,26.225A.718.718,0,0,1,6.225,25.21L10.5,29.486Z" transform="translate(1511.328 1207) rotate(90)" fill="#222"/>
  </g>
</svg>
