<svg xmlns="http://www.w3.org/2000/svg" width="27.443" height="25.767" viewBox="0 0 27.443 25.767">
  <path id="Path_68123" data-name="Path 68123" d="M-664.833,1016.988h-19.954l8.272,8.272a1.687,1.687,0,0,1,0,2.4,1.687,1.687,0,0,1-2.4,0l-11.179-11.179a1.687,1.687,0,0,1,0-2.4l11.179-11.179a1.687,1.687,0,0,1,2.4,0,1.687,1.687,0,0,1,0,2.4l-8.272,8.328h19.954a1.647,1.647,0,0,1,1.677,1.677A1.647,1.647,0,0,1-664.833,1016.988Z" transform="translate(690.6 -1002.4)" fill="#222" fill-rule="evenodd"/>
</svg>
