<svg xmlns="http://www.w3.org/2000/svg" width="80" height="80" viewBox="0 0 80 80">
  <g id="Group_69828" data-name="Group 69828" transform="translate(-0.199 -0.198)">
    <circle id="Ellipse_33" data-name="Ellipse 33" cx="40" cy="40" r="40" transform="translate(0.199 0.198)" fill="#0d3c47"/>
    <g id="noun-add-file-2572746" transform="translate(21.213 21.198)">
      <g id="Group_69794" data-name="Group 69794" transform="translate(0.985 1)">
        <path id="Path_68993" data-name="Path 68993" d="M22.142,6.387H24.52a.167.167,0,0,0,.118-.285L22.26,3.723a.167.167,0,0,0-.285.118V6.22A.167.167,0,0,0,22.142,6.387Z" transform="translate(1.377 -0.699)" fill="#fff"/>
        <path id="Path_68994" data-name="Path 68994" d="M25.528,36.028a10.009,10.009,0,0,1,3.179-19.462,8.733,8.733,0,0,1,.9.033.275.275,0,0,0,.3-.273V9.355a.558.558,0,0,0-.556-.556h-6.13a1.116,1.116,0,0,1-1.113-1.113V1.556A.556.556,0,0,0,21.557,1H3.211A2.232,2.232,0,0,0,.985,3.225V34.377A2.224,2.224,0,0,0,3.211,36.6l22.219-.04A.276.276,0,0,0,25.528,36.028Z" transform="translate(-0.985 -1)" fill="#fff"/>
        <path id="Path_68995" data-name="Path 68995" d="M26.8,16.988a7.788,7.788,0,1,0,7.788,7.788A7.794,7.794,0,0,0,26.8,16.988Zm4.606,8.856H27.96v3.382a1.113,1.113,0,1,1-2.225,0V25.844H22.419a1.113,1.113,0,1,1,0-2.225h3.315V20.237a1.113,1.113,0,1,1,2.225,0v3.382h3.449a1.113,1.113,0,1,1,0,2.225Z" transform="translate(1.044 0.8)" fill="#fff"/>
      </g>
    </g>
  </g>
</svg>
