<svg id="noun-menu-1000627" xmlns="http://www.w3.org/2000/svg" width="25.317" height="25.317" viewBox="0 0 25.317 25.317">
  <path id="Path_68171" data-name="Path 68171" d="M10.127,0H1.013A1.013,1.013,0,0,0,0,1.013v9.114a1.013,1.013,0,0,0,1.013,1.013h9.114a1.013,1.013,0,0,0,1.013-1.013V1.013A1.013,1.013,0,0,0,10.127,0ZM24.3,0H15.19a1.013,1.013,0,0,0-1.013,1.013v9.114a1.013,1.013,0,0,0,1.013,1.013H24.3a1.013,1.013,0,0,0,1.013-1.013V1.013A1.013,1.013,0,0,0,24.3,0ZM10.127,14.177H1.013A1.013,1.013,0,0,0,0,15.19V24.3a1.013,1.013,0,0,0,1.013,1.013h9.114A1.013,1.013,0,0,0,11.139,24.3V15.19A1.013,1.013,0,0,0,10.127,14.177Zm14.177,0H15.19a1.013,1.013,0,0,0-1.013,1.013V24.3a1.013,1.013,0,0,0,1.013,1.013H24.3A1.013,1.013,0,0,0,25.317,24.3V15.19A1.013,1.013,0,0,0,24.3,14.177Z" fill="#fff"/>
</svg>
