<svg xmlns="http://www.w3.org/2000/svg" width="23.29" height="26.697" viewBox="0 0 23.29 26.697">
  <g id="noun-notification-6487519" transform="translate(-15.055 -9.942)">
    <path id="Path_68157" data-name="Path 68157" d="M17.881,20.584v6.371c0,4.546-2.826,5.02-2.826,6.328l.162.162H38.183l.162-.162c0-1.309-2.826-1.782-2.826-6.328V20.584c0-4.325-3.906-7.827-8.106-8.184a1.332,1.332,0,1,0-1.655-2.067h0a1.332,1.332,0,0,0,.23,2.068c-4.2.357-8.106,3.859-8.106,8.184ZM29.352,34.437h-5.3a2.7,2.7,0,0,0,5.3,0Z" transform="translate(0 0)" fill="#fff" fill-rule="evenodd"/>
  </g>
</svg>
