<svg id="pencil-icon" xmlns="http://www.w3.org/2000/svg" width="22.119" height="22.375" viewBox="0 0 22.119 22.375">
  <path id="Path_68124" data-name="Path 68124" d="M17.633.4l4.082,4.082a1.389,1.389,0,0,1,0,1.959L19.458,8.7,13.416,2.662,15.674.4a1.389,1.389,0,0,1,1.959,0ZM12.779,9.5h0v0a.862.862,0,0,1,0,1.216v0l0,0L7.3,16.2h0a.956.956,0,0,1-.153.122h0a.805.805,0,0,1-.169.082.864.864,0,0,1-.894-.2h0v0a.957.957,0,0,1-.122-.153v0a.805.805,0,0,1-.082-.169.867.867,0,0,1,.2-.894v0L11.555,9.5h0a.862.862,0,0,1,1.216,0Zm-4.5,10.364-4.9,1.517C-.464,22.573-.448,23.365.6,19.665l1.651-5.827h0l-.005-.005L12.273,3.806l6.041,6.041L8.287,19.874l-.005-.007Zm-5-5,3.968,3.968-3.221.992c-2.524.777-2.513,1.3-1.826-1.133l1.08-3.827Z" transform="translate(0 0)" fill-rule="evenodd"/>
</svg>
