<svg id="recycle-bin-icon" xmlns="http://www.w3.org/2000/svg" width="19.059" height="21.391" viewBox="0 0 19.059 21.391">
  <path id="Path_68125" data-name="Path 68125" d="M.409,1.677H7.075V.655A.656.656,0,0,1,7.73,0h3.681a.656.656,0,0,1,.655.655V1.677h6.585a.41.41,0,0,1,.409.409v2H0v-2a.41.41,0,0,1,.409-.409Zm1.1,3.477H17.689a.6.6,0,0,1,.613.613L16.932,20.778a.637.637,0,0,1-.613.613H2.863a.637.637,0,0,1-.613-.613L.9,5.767a.6.6,0,0,1,.613-.613ZM12.025,7.485h1.717v11.37H12.025V7.485Zm-6.79,0H6.953v11.37H5.235V7.485Zm3.395,0h1.718v11.37H8.63V7.485Z" fill-rule="evenodd"/>
</svg>
