<svg xmlns="http://www.w3.org/2000/svg" width="10.328" height="11.002" viewBox="0 0 10.328 11.002">
  <g id="Group_68998" data-name="Group 68998" transform="translate(-209 -14)">
    <path id="Path_66738" data-name="Path 66738" d="M5.5,1.732,9.777,6.008a.718.718,0,0,0,1.015-1.015L6.008.21a.718.718,0,0,0-1.015,0L.21,4.994A.718.718,0,0,0,1.225,6.008L5.5,1.732Z" transform="translate(215.219 14) rotate(90)" fill="#222"/>
    <path id="Path_68150" data-name="Path 68150" d="M5.5,1.732,9.777,6.008a.718.718,0,0,0,1.015-1.015L6.008.21a.718.718,0,0,0-1.015,0L.21,4.994A.718.718,0,0,0,1.225,6.008L5.5,1.732Z" transform="translate(219.328 14) rotate(90)" fill="#222"/>
  </g>
</svg>
