<svg xmlns="http://www.w3.org/2000/svg" width="15.602" height="17.461" viewBox="0 0 15.602 17.461">
  <g id="Group_69433" data-name="Group 69433" transform="translate(-29.9 -18.1)">
    <g id="Group_69431" data-name="Group 69431" transform="translate(30.701 18.865)">
      <path id="Path_68180" data-name="Path 68180" d="M32.681,19.247,44.206,26.01a1.229,1.229,0,0,1,0,2.1L32.681,34.878A1.187,1.187,0,0,1,30.9,33.826V20.3A1.2,1.2,0,0,1,32.681,19.247Z" transform="translate(-30.9 -19.094)" fill="#fff"/>
    </g>
    <g id="Group_69432" data-name="Group 69432" transform="translate(29.9 18.1)">
      <path id="Path_68181" data-name="Path 68181" d="M31.656,35.561A1.742,1.742,0,0,1,29.9,33.8V19.856a1.726,1.726,0,0,1,2.635-1.5l12.089,6.923a1.7,1.7,0,0,1,.878,1.55,1.756,1.756,0,0,1-.878,1.55L32.535,35.3A1.742,1.742,0,0,1,31.656,35.561Zm0-16.428a.705.705,0,0,0-.723.723v13.9a.705.705,0,0,0,.723.723.958.958,0,0,0,.362-.1L44.055,27.4a.788.788,0,0,0,.362-.62.717.717,0,0,0-.362-.62L32.018,19.237A.747.747,0,0,0,31.656,19.133Z" transform="translate(-29.9 -18.1)" fill="#fff"/>
    </g>
  </g>
</svg>
