<svg xmlns="http://www.w3.org/2000/svg" width="18.911" height="23.843" viewBox="0 0 18.911 23.843">
  <g id="Group_69436" data-name="Group 69436" transform="translate(-4.5 -1.5)">
    <path id="Path_68186" data-name="Path 68186" d="M20.129,6.436v9.2a5.067,5.067,0,0,0-1.234-.148,5.355,5.355,0,0,0-5.347,5.347,5.3,5.3,0,0,0,.823,2.879H5.734A1.234,1.234,0,0,1,4.5,22.476V2.734A1.234,1.234,0,0,1,5.734,1.5h9.46V4.379A2.056,2.056,0,0,0,17.25,6.436Z" fill="#fff"/>
    <path id="Path_68187" data-name="Path 68187" d="M22.547,19.763l-.115-.041a4.664,4.664,0,0,0-1.407-.222,4.524,4.524,0,0,0-3.438,7.461l.049.058a4.524,4.524,0,1,0,4.936-7.255Zm.123,4.672H21.436v1.234a.411.411,0,1,1-.823,0V24.436H19.281a.418.418,0,0,1,.1-.823h1.234V22.379a.4.4,0,0,1,.3-.395h.107a.411.411,0,0,1,.411.411v1.234H22.67a.411.411,0,0,1,0,.823Z" transform="translate(-2.13 -3.193)" fill="#fff"/>
    <path id="Path_68188" data-name="Path 68188" d="M22.029,5.739h-2.3A1.234,1.234,0,0,1,18.5,4.505V2.21Z" transform="translate(-2.484 -0.126)" fill="#fff"/>
  </g>
</svg>
