<svg xmlns="http://www.w3.org/2000/svg" xmlns:xlink="http://www.w3.org/1999/xlink" width="61.733" height="61.733" viewBox="0 0 61.733 61.733">
  <defs>
    <clipPath id="clip-path">
      <path id="Path_68122" data-name="Path 68122" d="M-4,0H45.285V46.73H-4Z" transform="translate(4)" fill="none"/>
    </clipPath>
  </defs>
  <g id="Group_68746" data-name="Group 68746" transform="translate(-1760 -70)">
    <g id="Group_69102" data-name="Group 69102" transform="translate(1760 70)">
      <circle id="Ellipse_4" data-name="Ellipse 4" cx="30.867" cy="30.867" r="30.867" fill="#3ea9da"/>
      <g id="Group_68728" data-name="Group 68728" transform="translate(6.225 15.003)">
        <rect id="Rectangle_6420" data-name="Rectangle 6420" width="12.242" height="13.828" transform="translate(18.521 20.543)" fill="#e2988f"/>
        <g id="Group_68727" data-name="Group 68727" transform="translate(0)">
          <g id="Mask_Group_1" data-name="Mask Group 1" transform="translate(0 0)" clip-path="url(#clip-path)">
            <path id="Path_68114" data-name="Path 68114" d="M41.075,80.328A62.948,62.948,0,0,0,26.922,76.38c-3.387,3.407-9.695,3.455-12.688,0,0,0-9.976,1.8-16.747,4.711a30.9,30.9,0,0,0,45.818.384" transform="translate(4.065 -44.718)" fill="#de5126"/>
            <path id="Path_68115" data-name="Path 68115" d="M37.059,80.73h-.12a8.849,8.849,0,0,1-7.586-3.824l.274-.164a8.531,8.531,0,0,0,7.316,3.678h.117a9.308,9.308,0,0,0,7.768-3.681l.27.17a9.635,9.635,0,0,1-8.039,3.822" transform="translate(-12.596 -44.928)" fill="#3e3e3e"/>
            <path id="Path_68116" data-name="Path 68116" d="M43.519,12.92c0,6.392-3.639,14.693-11.692,14.537-8.662,0-11.952-7.371-11.952-13.763-1.517-4.155.306-8.664,3.462-9.494,1.975-3.179,5.4-4.2,8.851-4.2C38.812,0,45.35,4.7,43.519,12.92" transform="translate(-6.88 0)" fill="#141524"/>
            <path id="Path_68117" data-name="Path 68117" d="M43.525,17.616a1.414,1.414,0,0,0-2.053-.792c.287-6.1-2.933-10.33-9.924-10.33s-10.173,5.077-9.925,10.33a1.414,1.414,0,0,0-2.053.792c-.675,1.557.557,5.207,1.32,6.367a1.574,1.574,0,0,0,1.918.67,22.459,22.459,0,0,0,.634,3.575,27.116,27.116,0,0,0,5.514,5.706,5.454,5.454,0,0,0,5.184,0,27.108,27.108,0,0,0,5.514-5.706,22.622,22.622,0,0,0,.628-3.622,1.533,1.533,0,0,0,1.924-.623c.763-1.16,1.994-4.81,1.32-6.367" transform="translate(-6.905 -3.802)" fill="#e2988f"/>
            <path id="Path_68118" data-name="Path 68118" d="M39.489,68.177c-2.848,0-4.956-1.9-6.293-3.336l.239-.208c1.3,1.388,3.335,3.233,6.055,3.233,2.569,0,4.443-1.634,5.936-3.233l.239.208c-1.541,1.65-3.481,3.336-6.176,3.336" transform="translate(-14.788 -37.841)" fill="#c46966"/>
            <path id="Path_68158" data-name="Path 68158" d="M0,0H.322L.329,1.679H.007Z" transform="translate(15.549 19.201) rotate(-6.4)" fill="#c46966"/>
            <path id="Path_68159" data-name="Path 68159" d="M0,0,1.629.006V.328L0,.322Z" transform="matrix(0.104, -0.995, 0.995, 0.104, 33.216, 20.787)" fill="#c46966"/>
            <path id="Path_68119" data-name="Path 68119" d="M21.576,37.6c-.065-.23-.616-2.261.146-2.818a.686.686,0,0,1,.591-.1,1.139,1.139,0,0,1,.6.637l-.3.112a.839.839,0,0,0-.4-.453.36.36,0,0,0-.305.061c-.434.318-.244,1.692-.02,2.481Z" transform="translate(-8.016 -20.291)" fill="#c46966"/>
            <path id="Path_68120" data-name="Path 68120" d="M71.723,37.6l-.311-.082c.224-.79.413-2.163-.03-2.488a.35.35,0,0,0-.3-.054.839.839,0,0,0-.4.453l-.3-.112a1.139,1.139,0,0,1,.6-.637.679.679,0,0,1,.581.1c.771.563.221,2.595.156,2.824" transform="translate(-35.998 -20.29)" fill="#c46966"/>
            <path id="Path_68121" data-name="Path 68121" d="M24.607,16.245a10.829,10.829,0,0,1,2.947-5.033c4.033,4.535,9.007,7.491,16.9,5.033l.609-1.932s-.952-4.1-.952-4.243-3.124-2.955-3.124-2.955l-4.064-1.61H32.74L29.4,6.413l-2.942,2.4-1.855,3.6Z" transform="translate(-9.889 -3.224)" fill="#141524"/>
          </g>
        </g>
      </g>
    </g>
  </g>
</svg>
