<svg xmlns="http://www.w3.org/2000/svg" xmlns:xlink="http://www.w3.org/1999/xlink" width="60" height="60" viewBox="0 0 60 60">
  <defs>
    <clipPath id="clip-path">
      <path id="Path_68122" data-name="Path 68122" d="M-4,0H43.552V46.73H-4Z" fill="none"/>
    </clipPath>
  </defs>
  <g id="Group_69102" data-name="Group 69102" transform="translate(-1760 -70)">
    <circle id="Ellipse_4" data-name="Ellipse 4" cx="30" cy="30" r="30" transform="translate(1760 70)" fill="#3e3e3e"/>
    <g id="Group_68728" data-name="Group 68728" transform="translate(1770.225 83.27)">
      <rect id="Rectangle_6420" data-name="Rectangle 6420" width="12.242" height="13.828" transform="translate(13.655 20.543)" fill="#e2988f"/>
      <g id="Group_68727" data-name="Group 68727" transform="translate(0 0)">
        <g id="Mask_Group_1" data-name="Mask Group 1" transform="translate(0 0)" clip-path="url(#clip-path)">
          <path id="Path_68114" data-name="Path 68114" d="M39.552,80.328A59.035,59.035,0,0,0,25.9,76.38c-3.268,3.407-9.354,3.455-12.242,0A130.587,130.587,0,0,0-2.227,81.8a29.809,29.809,0,0,0,22,9.644,30.259,30.259,0,0,0,22.382-10" transform="translate(0 -44.718)" fill="#adadad"/>
          <path id="Path_68115" data-name="Path 68115" d="M36.788,80.73h-.116a8.45,8.45,0,0,1-7.319-3.824l.264-.164a8.146,8.146,0,0,0,7.058,3.678h.113a8.87,8.87,0,0,0,7.495-3.681l.261.17a9.183,9.183,0,0,1-7.756,3.822" transform="translate(-17.185 -44.928)" fill="#3e3e3e"/>
          <path id="Path_68116" data-name="Path 68116" d="M42.668,12.92c0,6.392-3.511,14.693-11.281,14.537-8.357,0-11.532-7.371-11.532-13.763-1.463-4.155.3-8.664,3.34-9.494C25.1,1.022,28.41,0,31.735,0c6.392,0,12.7,4.7,10.933,12.92" transform="translate(-11.318 0)" fill="#141524"/>
          <path id="Path_68117" data-name="Path 68117" d="M42.676,17.616a1.344,1.344,0,0,0-1.981-.792c.277-6.1-2.83-10.33-9.575-10.33s-9.815,5.077-9.576,10.33a1.343,1.343,0,0,0-1.981.792c-.651,1.557.538,5.207,1.273,6.367a1.487,1.487,0,0,0,1.85.67,23.205,23.205,0,0,0,.611,3.575,26.714,26.714,0,0,0,5.32,5.706,5.1,5.1,0,0,0,5,0,26.706,26.706,0,0,0,5.32-5.706,23.378,23.378,0,0,0,.606-3.622,1.447,1.447,0,0,0,1.856-.623c.736-1.16,1.924-4.81,1.273-6.367" transform="translate(-11.344 -3.802)" fill="#e2988f"/>
          <path id="Path_68118" data-name="Path 68118" d="M39.268,68.177c-2.748,0-4.782-1.9-6.072-3.336l.23-.208c1.251,1.388,3.218,3.233,5.842,3.233,2.478,0,4.287-1.634,5.728-3.233l.231.208c-1.487,1.65-3.358,3.336-5.958,3.336" transform="translate(-19.435 -37.841)" fill="#c46966"/>
          <rect id="Rectangle_6421" data-name="Rectangle 6421" width="0.311" height="1.677" transform="translate(11.002 19.201) rotate(-6.4)" fill="#c46966"/>
          <rect id="Rectangle_6422" data-name="Rectangle 6422" width="1.629" height="0.311" transform="matrix(0.104, -0.995, 0.995, 0.104, 28.048, 20.787)" fill="#c46966"/>
          <path id="Path_68119" data-name="Path 68119" d="M21.567,37.6c-.063-.23-.594-2.261.141-2.818a.642.642,0,0,1,.57-.1,1.126,1.126,0,0,1,.582.637l-.29.112c-.041-.1-.189-.388-.388-.453a.337.337,0,0,0-.295.061c-.418.318-.235,1.692-.019,2.481Z" transform="translate(-12.484 -20.291)" fill="#c46966"/>
          <path id="Path_68120" data-name="Path 68120" d="M71.676,37.6l-.3-.082c.216-.79.4-2.163-.029-2.488a.328.328,0,0,0-.285-.054c-.2.064-.348.349-.388.453l-.29-.112a1.126,1.126,0,0,1,.582-.637.636.636,0,0,1,.561.1c.744.563.213,2.595.15,2.824" transform="translate(-41.207 -20.29)" fill="#c46966"/>
          <path id="Path_68121" data-name="Path 68121" d="M24.607,16.245a10.919,10.919,0,0,1,2.843-5.033c3.892,4.535,8.69,7.491,16.308,5.033l.587-1.932s-.919-4.1-.919-4.243-3.014-2.955-3.014-2.955l-3.921-1.61H32.454l-3.218.907L26.4,8.813l-1.79,3.6Z" transform="translate(-14.407 -3.224)" fill="#141524"/>
        </g>
      </g>
    </g>
  </g>
</svg>
